<svg xmlns="http://www.w3.org/2000/svg" width="76" height="40.464" viewBox="0 0 76 40.464">
  <g id="グループ_4904" data-name="グループ 4904" transform="translate(-242 -2581.653)">
    <g id="_956_sm_h" data-name="956_sm_h" transform="translate(229 2578)">
      <path id="パス_760" data-name="パス 760" d="M18,5H31a3,3,0,0,1,3,3V40a3,3,0,0,1-3,3H17a3,3,0,0,1-3-3V8a3,3,0,0,1,3-3h1" fill="none" stroke="#1f3c88" stroke-linecap="round" stroke-linejoin="round" stroke-width="2"/>
      <path id="パス_761" data-name="パス 761" d="M30,5,28.219,8.447A1.037,1.037,0,0,1,27.3,9H20.7a1.037,1.037,0,0,1-.924-.553L18,5" fill="none" stroke="#1f3c88" stroke-linecap="round" stroke-linejoin="round" stroke-width="2"/>
    </g>
    <g id="_1089_pc_h" data-name="1089_pc_h" transform="translate(266.4 2575)">
      <line id="線_25" data-name="線 25" x1="1" y2="8" transform="translate(24.6 38)" fill="none" stroke="#1f3c88" stroke-linecap="round" stroke-linejoin="round" stroke-width="2"/>
      <line id="線_26" data-name="線 26" x2="1" y2="8" transform="translate(29.6 38)" fill="none" stroke="#1f3c88" stroke-linecap="round" stroke-linejoin="round" stroke-width="2"/>
      <line id="線_27" data-name="線 27" x2="12" transform="translate(21.6 46)" fill="none" stroke="#1f3c88" stroke-linecap="round" stroke-linejoin="round" stroke-width="2"/>
      <rect id="長方形_2749" data-name="長方形 2749" width="46" height="30" rx="2" transform="translate(4.6 8)" fill="none" stroke="#1f3c88" stroke-linecap="round" stroke-linejoin="round" stroke-width="2"/>
      <line id="線_28" data-name="線 28" x2="46" transform="translate(4.6 13)" fill="none" stroke="#1f3c88" stroke-linecap="round" stroke-linejoin="round" stroke-width="2"/>
      <line id="線_29" data-name="線 29" x2="46" transform="translate(4.6 32)" fill="none" stroke="#1f3c88" stroke-linecap="round" stroke-linejoin="round" stroke-width="2"/>
    </g>
  </g>
</svg>
