<svg xmlns="http://www.w3.org/2000/svg" width="49.229" height="45.07" viewBox="0 0 49.229 45.07">
  <g id="グループ_4564" data-name="グループ 4564" transform="translate(-48.3 -51.3)">
    <path id="パス_235" data-name="パス 235" d="M52.119,58.239H49V52h6.239v3.119" fill="none" stroke="#1f3c88" stroke-miterlimit="10" stroke-width="1.4"/>
    <path id="パス_236" data-name="パス 236" d="M92.119,58.239h3.119V52H89v3.119" transform="translate(1.591)" fill="none" stroke="#1f3c88" stroke-miterlimit="10" stroke-width="1.4"/>
    <line id="線_5" data-name="線 5" x2="30.473" transform="translate(57.598 53.188)" fill="none" stroke="#1f3c88" stroke-miterlimit="10" stroke-width="1.4"/>
    <path id="パス_237" data-name="パス 237" d="M52.119,80H49v6.239h6.239V83.119" transform="translate(0 1.114)" fill="none" stroke="#1f3c88" stroke-miterlimit="10" stroke-width="1.4"/>
    <path id="パス_238" data-name="パス 238" d="M92.119,80h3.119v6.239H89V83.119" transform="translate(1.591 1.114)" fill="none" stroke="#1f3c88" stroke-miterlimit="10" stroke-width="1.4"/>
    <line id="線_6" data-name="線 6" x2="8.504" transform="translate(57.598 86.495)" fill="none" stroke="#1f3c88" stroke-miterlimit="10" stroke-width="1.4"/>
    <line id="線_7" data-name="線 7" x2="9.213" transform="translate(78.858 86.495)" fill="none" stroke="#1f3c88" stroke-miterlimit="10" stroke-width="1.4"/>
    <line id="線_8" data-name="線 8" y2="16.299" transform="translate(49.094 61.692)" fill="none" stroke="#1f3c88" stroke-miterlimit="10" stroke-width="1.4"/>
    <line id="線_9" data-name="線 9" y2="16.299" transform="translate(96.574 61.692)" fill="none" stroke="#1f3c88" stroke-miterlimit="10" stroke-width="1.4"/>
    <path id="パス_239" data-name="パス 239" d="M69,84V94.4l3.119-2.08,3.119,2.08V84" transform="translate(0.795 1.273)" fill="none" stroke="#1f3c88" stroke-linecap="round" stroke-linejoin="round" stroke-width="1.4"/>
    <line id="線_10" data-name="線 10" x2="23.386" transform="translate(61.141 61.692)" fill="none" stroke="#1f3c88" stroke-miterlimit="10" stroke-width="1.4"/>
    <line id="線_11" data-name="線 11" x2="14.882" transform="translate(65.393 65.235)" fill="none" stroke="#1f3c88" stroke-miterlimit="10" stroke-width="1.4"/>
    <path id="パス_240" data-name="パス 240" d="M73.74,70.652h0a1.98,1.98,0,0,0,1.726.635h0a2,2,0,0,1,2.249,1.907h0a2.018,2.018,0,0,0,.919,1.607h0a2.027,2.027,0,0,1,.513,2.922h0a2.03,2.03,0,0,0-.317,1.829h0a2.014,2.014,0,0,1-1.465,2.569h0a1.993,1.993,0,0,0-1.406,1.193h0A1.979,1.979,0,0,1,73.2,84.329h0a1.971,1.971,0,0,0-1.836,0h0a1.983,1.983,0,0,1-2.759-1.015h0A2,2,0,0,0,67.2,82.122h0a2.019,2.019,0,0,1-1.469-2.569h0a2.031,2.031,0,0,0-.32-1.829h0a2.026,2.026,0,0,1,.507-2.922h0a2.015,2.015,0,0,0,.916-1.607h0a2,2,0,0,1,2.246-1.907h0a1.976,1.976,0,0,0,1.725-.635h0A1.977,1.977,0,0,1,73.74,70.652Z" transform="translate(0.636 0.716)" fill="none" stroke="#1f3c88" stroke-miterlimit="10" stroke-width="1.4"/>
    <ellipse id="楕円形_23" data-name="楕円形 23" cx="3.543" cy="3.189" rx="3.543" ry="3.189" transform="translate(69.645 75.157)" fill="none" stroke="#1f3c88" stroke-miterlimit="10" stroke-width="1.4"/>
  </g>
</svg>
