<svg xmlns="http://www.w3.org/2000/svg" width="736" height="292.628" viewBox="0 0 736 292.628">
  <g id="グループ_4895" data-name="グループ 4895" transform="translate(-352 -5788.477)">
    <g id="グループ_4783" data-name="グループ 4783" transform="translate(-9 21)">
      <path id="パス_934" data-name="パス 934" d="M10.406-3.586q-.264.968-.473,1.925T9.548,0H.726V-.572q.88-.858,1.793-1.76T4.246-4.2a13.689,13.689,0,0,0,1.793-2.64A5.565,5.565,0,0,0,6.666-9.35a2.939,2.939,0,0,0-.583-1.881,2.069,2.069,0,0,0-1.727-.737,2.5,2.5,0,0,0-.924.165,3.52,3.52,0,0,0-.781.429,4.079,4.079,0,0,0-.671.616,7.2,7.2,0,0,0-.572.748L.77-10.538l1.408-2.068A5.2,5.2,0,0,1,3.63-13.6,4.434,4.434,0,0,1,5.5-13.97a4.471,4.471,0,0,1,1.54.264,3.762,3.762,0,0,1,1.276.77A3.64,3.64,0,0,1,9.185-11.7a4.063,4.063,0,0,1,.319,1.65A4.392,4.392,0,0,1,9.328-8.8a5.175,5.175,0,0,1-.55,1.21,9.029,9.029,0,0,1-.957,1.276q-.583.66-1.4,1.43L3.784-2.376H7.37q.484,0,.8-.033a1.281,1.281,0,0,0,.55-.176,1.563,1.563,0,0,0,.44-.44q.209-.3.517-.825ZM16.5-13.97a3.925,3.925,0,0,1,2.321.66,4.9,4.9,0,0,1,1.5,1.694,7.9,7.9,0,0,1,.8,2.3,13.047,13.047,0,0,1,.242,2.453,13.156,13.156,0,0,1-.242,2.475,7.9,7.9,0,0,1-.8,2.3A4.9,4.9,0,0,1,18.821-.4,3.925,3.925,0,0,1,16.5.264,3.925,3.925,0,0,1,14.179-.4,4.979,4.979,0,0,1,12.672-2.1a7.854,7.854,0,0,1-.814-2.3,12.875,12.875,0,0,1-.242-2.442,12.769,12.769,0,0,1,.253-2.486,7.777,7.777,0,0,1,.825-2.3A5.042,5.042,0,0,1,14.2-13.31,3.886,3.886,0,0,1,16.5-13.97Zm-.022.9a1.06,1.06,0,0,0-.924.55,4.653,4.653,0,0,0-.561,1.419,12.069,12.069,0,0,0-.286,1.969q-.077,1.1-.077,2.2,0,1.122.1,2.244a13.638,13.638,0,0,0,.319,2.024A4.786,4.786,0,0,0,15.631-1.2a1.066,1.066,0,0,0,.913.561,1.043,1.043,0,0,0,.9-.55,4.651,4.651,0,0,0,.561-1.441,12.654,12.654,0,0,0,.286-2.013q.077-1.122.077-2.266,0-1.166-.1-2.277a12.42,12.42,0,0,0-.319-1.969,4.355,4.355,0,0,0-.583-1.386A1.06,1.06,0,0,0,16.478-13.068ZM32.406-3.586q-.264.968-.473,1.925T31.548,0H22.726V-.572q.88-.858,1.793-1.76T26.246-4.2a13.689,13.689,0,0,0,1.793-2.64,5.565,5.565,0,0,0,.627-2.508,2.939,2.939,0,0,0-.583-1.881,2.069,2.069,0,0,0-1.727-.737,2.5,2.5,0,0,0-.924.165,3.52,3.52,0,0,0-.781.429,4.079,4.079,0,0,0-.671.616,7.2,7.2,0,0,0-.572.748l-.638-.528,1.408-2.068a5.2,5.2,0,0,1,1.452-.99,4.434,4.434,0,0,1,1.87-.374,4.471,4.471,0,0,1,1.54.264,3.762,3.762,0,0,1,1.276.77,3.64,3.64,0,0,1,.869,1.232,4.063,4.063,0,0,1,.319,1.65A4.392,4.392,0,0,1,31.328-8.8a5.175,5.175,0,0,1-.55,1.21,9.029,9.029,0,0,1-.957,1.276q-.583.66-1.4,1.43l-2.64,2.508H29.37q.484,0,.8-.033a1.281,1.281,0,0,0,.55-.176,1.563,1.563,0,0,0,.44-.44q.209-.3.517-.825ZM41.316,0V-.77a3.568,3.568,0,0,0,.825-.209.708.708,0,0,0,.352-.264A.443.443,0,0,0,42.5-1.6a2.4,2.4,0,0,0-.22-.473q-.088-.132-.231-.385t-.407-.7q-.264-.451-.682-1.133T39.952-6.006q-.792,1.188-1.419,2.2t-1,1.672q-.4.7-.176.946A2.764,2.764,0,0,0,38.7-.77V0H33.176V-.77a5.325,5.325,0,0,0,1.518-.385,3.2,3.2,0,0,0,1.1-.825q.286-.374.715-.924t.9-1.188q.473-.638.99-1.353t.979-1.419q-.792-1.32-1.518-2.508t-1.606-2.574a4.827,4.827,0,0,0-.484-.671,2.151,2.151,0,0,0-.55-.451,3.031,3.031,0,0,0-.715-.286,6.824,6.824,0,0,0-.957-.176v-.77h6.644v.77a5.076,5.076,0,0,0-.7.209.669.669,0,0,0-.319.22.355.355,0,0,0-.044.275,1.313,1.313,0,0,0,.143.352q.286.528.792,1.364T41.25-9.152q.506-.682,1.045-1.518t.935-1.562a2.34,2.34,0,0,0,.209-.495.387.387,0,0,0-.055-.352.834.834,0,0,0-.4-.242,7,7,0,0,0-.814-.209v-.77h5.3v.77a7.882,7.882,0,0,0-.924.165,3.536,3.536,0,0,0-.726.264,2.888,2.888,0,0,0-.627.429,6.168,6.168,0,0,0-.627.66q-.572.66-1.265,1.6T41.822-8.382q.99,1.54,1.837,2.915T45.474-2.6a6.952,6.952,0,0,0,.616.858,2.672,2.672,0,0,0,.6.528,2.284,2.284,0,0,0,.715.286,9.661,9.661,0,0,0,.968.154V0Z" transform="translate(1025 6039)" fill="#1f3c88"/>
      <g id="長方形_2107" data-name="長方形 2107" transform="translate(1001 5812)" fill="none" stroke="#bbb" stroke-width="1" stroke-dasharray="3 3">
        <rect width="96" height="195" stroke="none"/>
        <rect x="0.5" y="0.5" width="95" height="194" fill="none"/>
      </g>
      <g id="グループ_4778" data-name="グループ 4778" transform="translate(1005 5811)">
        <path id="パス_916" data-name="パス 916" d="M1.792-16.192,3.36-18.336A7.664,7.664,0,0,1,5.184-19.7a5.585,5.585,0,0,1,2.752-.624A5.592,5.592,0,0,1,11.792-19.1a3.978,3.978,0,0,1,1.36,3.1,2.492,2.492,0,0,1-.288,1.184,3.6,3.6,0,0,1-.736.96,10.953,10.953,0,0,1-.992.752q-.544.368-1.376.88v.064a5.822,5.822,0,0,1,3.568,1.824,4.839,4.839,0,0,1,1.2,3.232A5.221,5.221,0,0,1,14-4.736a7.217,7.217,0,0,1-1.36,1.888,9.4,9.4,0,0,1-1.856,1.44A14.8,14.8,0,0,1,8.768-.4,11.908,11.908,0,0,1,6.912.192,6.653,6.653,0,0,1,5.568.384,6.423,6.423,0,0,1,3.408.048a5,5,0,0,1-1.424-.72,1.7,1.7,0,0,1-.736-1.28,1.314,1.314,0,0,1,.3-.832,3.967,3.967,0,0,1,.624-.64,1.15,1.15,0,0,1,.576-.256.937.937,0,0,1,.64.224q.256.224.672.576a7.38,7.38,0,0,0,.944.672,7.212,7.212,0,0,0,1.152.56,3.667,3.667,0,0,0,1.328.24A2.545,2.545,0,0,0,9.536-2.432a5.227,5.227,0,0,0,.832-3.3,4.838,4.838,0,0,0-.352-1.952A3.516,3.516,0,0,0,9.1-8.96a3.627,3.627,0,0,0-1.248-.7,4.282,4.282,0,0,0-1.328-.224,6.67,6.67,0,0,0-.912.064,6.51,6.51,0,0,0-.816.16l-.224-1.088a11.3,11.3,0,0,0,3.312-1.664,3.025,3.025,0,0,0,1.3-2.5,2.72,2.72,0,0,0-.832-2.24,2.968,2.968,0,0,0-1.92-.672,3.467,3.467,0,0,0-2.1.64,8.18,8.18,0,0,0-1.712,1.76ZM24-20.32a5.708,5.708,0,0,1,3.376.96A7.132,7.132,0,0,1,29.552-16.9a11.493,11.493,0,0,1,1.168,3.344,18.977,18.977,0,0,1,.352,3.568,19.137,19.137,0,0,1-.352,3.6A11.493,11.493,0,0,1,29.552-3.04,7.132,7.132,0,0,1,27.376-.576,5.708,5.708,0,0,1,24,.384a5.708,5.708,0,0,1-3.376-.96,7.241,7.241,0,0,1-2.192-2.48A11.424,11.424,0,0,1,17.248-6.4,18.728,18.728,0,0,1,16.9-9.952a18.573,18.573,0,0,1,.368-3.616,11.312,11.312,0,0,1,1.2-3.344,7.334,7.334,0,0,1,2.192-2.448A5.652,5.652,0,0,1,24-20.32Zm-.032,1.312a1.541,1.541,0,0,0-1.344.8,6.769,6.769,0,0,0-.816,2.064,17.554,17.554,0,0,0-.416,2.864q-.112,1.6-.112,3.2,0,1.632.144,3.264a19.837,19.837,0,0,0,.464,2.944,6.961,6.961,0,0,0,.848,2.128,1.55,1.55,0,0,0,1.328.816,1.518,1.518,0,0,0,1.312-.8,6.765,6.765,0,0,0,.816-2.1,18.405,18.405,0,0,0,.416-2.928q.112-1.632.112-3.3,0-1.7-.144-3.312a18.065,18.065,0,0,0-.464-2.864,6.334,6.334,0,0,0-.848-2.016A1.542,1.542,0,0,0,23.968-19.008ZM40-20.32a5.708,5.708,0,0,1,3.376.96A7.132,7.132,0,0,1,45.552-16.9a11.493,11.493,0,0,1,1.168,3.344,18.977,18.977,0,0,1,.352,3.568,19.136,19.136,0,0,1-.352,3.6A11.493,11.493,0,0,1,45.552-3.04,7.132,7.132,0,0,1,43.376-.576,5.708,5.708,0,0,1,40,.384a5.708,5.708,0,0,1-3.376-.96,7.242,7.242,0,0,1-2.192-2.48A11.424,11.424,0,0,1,33.248-6.4,18.728,18.728,0,0,1,32.9-9.952a18.573,18.573,0,0,1,.368-3.616,11.312,11.312,0,0,1,1.2-3.344,7.334,7.334,0,0,1,2.192-2.448A5.652,5.652,0,0,1,40-20.32Zm-.032,1.312a1.541,1.541,0,0,0-1.344.8,6.769,6.769,0,0,0-.816,2.064,17.554,17.554,0,0,0-.416,2.864q-.112,1.6-.112,3.2,0,1.632.144,3.264a19.837,19.837,0,0,0,.464,2.944,6.961,6.961,0,0,0,.848,2.128,1.55,1.55,0,0,0,1.328.816,1.518,1.518,0,0,0,1.312-.8,6.765,6.765,0,0,0,.816-2.1,18.4,18.4,0,0,0,.416-2.928q.112-1.632.112-3.3,0-1.7-.144-3.312a18.065,18.065,0,0,0-.464-2.864,6.334,6.334,0,0,0-.848-2.016A1.542,1.542,0,0,0,39.968-19.008Z" transform="translate(12 32)" fill="#1f3c88"/>
        <path id="パス_917" data-name="パス 917" d="M6.016-7.84v-.624l1.632.624h4.816l.7-.8,1.44,1.072a.532.532,0,0,1-.2.168,1.43,1.43,0,0,1-.392.12v3.472q0,.048-.336.192a2.312,2.312,0,0,1-.9.144h-.272v-3.9H7.472v3.76q0,.08-.32.224a2.19,2.19,0,0,1-.88.144H6.016Zm.672,1.632h6.32v.448H6.688Zm0,1.7h6.24v.464H6.688ZM4.672-9.3h8.512l.9-1.1.16.128q.16.128.408.32t.52.424q.272.232.512.44-.064.256-.432.256H4.8Zm.7-2.672h7.3l.88-1.088.16.12q.16.12.416.32t.528.424q.272.224.5.432-.064.256-.432.256H5.5ZM8.944-3.68a5.04,5.04,0,0,1,1.552.224,2.221,2.221,0,0,1,.888.52,1.188,1.188,0,0,1,.344.624.776.776,0,0,1-.1.544.71.71,0,0,1-.432.312.848.848,0,0,1-.64-.112,2.371,2.371,0,0,0-.4-.744,5.269,5.269,0,0,0-.64-.7,4,4,0,0,0-.72-.528Zm3.776.768a5.608,5.608,0,0,1,1.68.624,2.845,2.845,0,0,1,.9.808,1.538,1.538,0,0,1,.288.808A.942.942,0,0,1,15.4-.04a.737.737,0,0,1-.52.28.977.977,0,0,1-.688-.256,3.365,3.365,0,0,0-.312-1A5.947,5.947,0,0,0,13.288-2a5.572,5.572,0,0,0-.712-.8Zm-5.6-8.64a3.868,3.868,0,0,1,1.288.472,1.64,1.64,0,0,1,.608.608.863.863,0,0,1,.08.6.79.79,0,0,1-.3.456.783.783,0,0,1-.528.152,1.035,1.035,0,0,1-.608-.272,3.36,3.36,0,0,0-.248-1.048,4.713,4.713,0,0,0-.456-.888ZM9.136-13.5l2.048.176a.4.4,0,0,1-.128.264.789.789,0,0,1-.4.152v1.264H9.136Zm2.256,1.9,2.1.5a.359.359,0,0,1-.176.232.8.8,0,0,1-.416.088q-.384.384-.936.872t-1.048.872H10.64q.192-.544.408-1.272T11.392-11.6ZM7.44-2.944l1.808.176a.389.389,0,0,1-.128.248.611.611,0,0,1-.336.136V-.368q0,.144.088.184a1.329,1.329,0,0,0,.424.04h2.432a1.088,1.088,0,0,0,.2-.04.224.224,0,0,0,.12-.1,2.572,2.572,0,0,0,.224-.488q.128-.344.272-.792h.176l.064,1.3a.887.887,0,0,1,.4.24.492.492,0,0,1,.1.3.57.57,0,0,1-.24.472,1.856,1.856,0,0,1-.848.264,14.322,14.322,0,0,1-1.744.08H8.976a3.478,3.478,0,0,1-.984-.1.661.661,0,0,1-.44-.368A1.859,1.859,0,0,1,7.44-.1Zm-1.312.112h.256a3.5,3.5,0,0,1,.232,1.456A2.266,2.266,0,0,1,6.288-.32a1.6,1.6,0,0,1-.64.592A1.159,1.159,0,0,1,4.9.344.663.663,0,0,1,4.4-.1.682.682,0,0,1,4.5-.72a1.22,1.22,0,0,1,.52-.384,2.23,2.23,0,0,0,.768-.664A1.543,1.543,0,0,0,6.128-2.832ZM2.368-8.5l.608-.8,1.376.5q-.08.24-.5.3V.88q0,.064-.184.168a2.5,2.5,0,0,1-.456.192,1.86,1.86,0,0,1-.576.088H2.368ZM3.616-13.5l2.208.672a.454.454,0,0,1-.2.24.712.712,0,0,1-.424.08,24.354,24.354,0,0,1-1.272,2.88,19.05,19.05,0,0,1-1.552,2.5A14.661,14.661,0,0,1,.592-5.12L.384-5.264A20.684,20.684,0,0,0,1.616-7.616q.608-1.344,1.128-2.856A30.427,30.427,0,0,0,3.616-13.5Z" transform="translate(61 30)" fill="#1f3c88"/>
      </g>
      <path id="パス_933" data-name="パス 933" d="M10.406-3.586q-.264.968-.473,1.925T9.548,0H.726V-.572q.88-.858,1.793-1.76T4.246-4.2a13.689,13.689,0,0,0,1.793-2.64A5.565,5.565,0,0,0,6.666-9.35a2.939,2.939,0,0,0-.583-1.881,2.069,2.069,0,0,0-1.727-.737,2.5,2.5,0,0,0-.924.165,3.52,3.52,0,0,0-.781.429,4.079,4.079,0,0,0-.671.616,7.2,7.2,0,0,0-.572.748L.77-10.538l1.408-2.068A5.2,5.2,0,0,1,3.63-13.6,4.434,4.434,0,0,1,5.5-13.97a4.471,4.471,0,0,1,1.54.264,3.762,3.762,0,0,1,1.276.77A3.64,3.64,0,0,1,9.185-11.7a4.063,4.063,0,0,1,.319,1.65A4.392,4.392,0,0,1,9.328-8.8a5.175,5.175,0,0,1-.55,1.21,9.029,9.029,0,0,1-.957,1.276q-.583.66-1.4,1.43L3.784-2.376H7.37q.484,0,.8-.033a1.281,1.281,0,0,0,.55-.176,1.563,1.563,0,0,0,.44-.44q.209-.3.517-.825ZM16.5-13.97a3.925,3.925,0,0,1,2.321.66,4.9,4.9,0,0,1,1.5,1.694,7.9,7.9,0,0,1,.8,2.3,13.047,13.047,0,0,1,.242,2.453,13.156,13.156,0,0,1-.242,2.475,7.9,7.9,0,0,1-.8,2.3A4.9,4.9,0,0,1,18.821-.4,3.925,3.925,0,0,1,16.5.264,3.925,3.925,0,0,1,14.179-.4,4.979,4.979,0,0,1,12.672-2.1a7.854,7.854,0,0,1-.814-2.3,12.875,12.875,0,0,1-.242-2.442,12.769,12.769,0,0,1,.253-2.486,7.777,7.777,0,0,1,.825-2.3A5.042,5.042,0,0,1,14.2-13.31,3.886,3.886,0,0,1,16.5-13.97Zm-.022.9a1.06,1.06,0,0,0-.924.55,4.653,4.653,0,0,0-.561,1.419,12.069,12.069,0,0,0-.286,1.969q-.077,1.1-.077,2.2,0,1.122.1,2.244a13.638,13.638,0,0,0,.319,2.024A4.786,4.786,0,0,0,15.631-1.2a1.066,1.066,0,0,0,.913.561,1.043,1.043,0,0,0,.9-.55,4.651,4.651,0,0,0,.561-1.441,12.654,12.654,0,0,0,.286-2.013q.077-1.122.077-2.266,0-1.166-.1-2.277a12.42,12.42,0,0,0-.319-1.969,4.355,4.355,0,0,0-.583-1.386A1.06,1.06,0,0,0,16.478-13.068ZM32.406-3.586q-.264.968-.473,1.925T31.548,0H22.726V-.572q.88-.858,1.793-1.76T26.246-4.2a13.689,13.689,0,0,0,1.793-2.64,5.565,5.565,0,0,0,.627-2.508,2.939,2.939,0,0,0-.583-1.881,2.069,2.069,0,0,0-1.727-.737,2.5,2.5,0,0,0-.924.165,3.52,3.52,0,0,0-.781.429,4.079,4.079,0,0,0-.671.616,7.2,7.2,0,0,0-.572.748l-.638-.528,1.408-2.068a5.2,5.2,0,0,1,1.452-.99,4.434,4.434,0,0,1,1.87-.374,4.471,4.471,0,0,1,1.54.264,3.762,3.762,0,0,1,1.276.77,3.64,3.64,0,0,1,.869,1.232,4.063,4.063,0,0,1,.319,1.65A4.392,4.392,0,0,1,31.328-8.8a5.175,5.175,0,0,1-.55,1.21,9.029,9.029,0,0,1-.957,1.276q-.583.66-1.4,1.43l-2.64,2.508H29.37q.484,0,.8-.033a1.281,1.281,0,0,0,.55-.176,1.563,1.563,0,0,0,.44-.44q.209-.3.517-.825ZM35.75-7.942a16.274,16.274,0,0,1,1.606-.517,5.2,5.2,0,0,1,1.232-.209,5.262,5.262,0,0,1,1.87.308,4.189,4.189,0,0,1,1.375.825,3.568,3.568,0,0,1,.858,1.188,3.365,3.365,0,0,1,.3,1.375,4.006,4.006,0,0,1-.528,1.98,5.455,5.455,0,0,1-1.694,1.76A7.887,7.887,0,0,1,38.742-.154a6.612,6.612,0,0,1-2.09.418,4.249,4.249,0,0,1-1.287-.2,2.971,2.971,0,0,1-1-.506A1.572,1.572,0,0,1,33.935-.9a.97.97,0,0,1-.1-.44,1.16,1.16,0,0,1,.2-.572,1.816,1.816,0,0,1,.506-.55q.352-.242.792.132.2.176.495.407a5.732,5.732,0,0,0,.66.44,4.321,4.321,0,0,0,.792.352,2.8,2.8,0,0,0,.891.143,1.67,1.67,0,0,0,1.529-.8,3.82,3.82,0,0,0,.495-2.035,3.242,3.242,0,0,0-.869-2.365,3.18,3.18,0,0,0-2.387-.891,6,6,0,0,0-1.408.154q-.638.154-.99.264l.99-7.04H42.5l.132.22-.7,2.156H36.344Z" transform="translate(899 6039)" fill="#1f3c88"/>
      <g id="グループ_4781" data-name="グループ 4781" transform="translate(5)">
        <rect id="長方形_2107-2" data-name="長方形 2107" width="96" height="166" transform="translate(868 5841)" fill="#1f3c88"/>
        <g id="グループ_4778-2" data-name="グループ 4778" transform="translate(880 5845)">
          <path id="パス_914" data-name="パス 914" d="M3.264,0V-1.088A8.694,8.694,0,0,0,4.784-1.3a1.665,1.665,0,0,0,.848-.464A1.591,1.591,0,0,0,6-2.608,9.679,9.679,0,0,0,6.08-4V-15.616a8.3,8.3,0,0,0-.048-.992A1.332,1.332,0,0,0,5.84-17.2a.745.745,0,0,0-.432-.288A3.959,3.959,0,0,0,4.64-17.6l-1.632-.128v-.928q1.6-.256,3.392-.672t3.9-.992V-4a9.4,9.4,0,0,0,.08,1.36,1.765,1.765,0,0,0,.352.864,1.517,1.517,0,0,0,.832.48,8.694,8.694,0,0,0,1.52.208V0ZM24.352-20.32a7.453,7.453,0,0,1,2.4.368,5.415,5.415,0,0,1,1.856,1.04,4.835,4.835,0,0,1,1.2,1.584,4.539,4.539,0,0,1,.432,1.968,3.205,3.205,0,0,1-1.056,2.368q-.384.352-.9.752t-1.44,1.008a17.3,17.3,0,0,1,1.6.976,7.69,7.69,0,0,1,1.36,1.184,5.266,5.266,0,0,1,.944,1.488A4.805,4.805,0,0,1,31.1-5.7a5.151,5.151,0,0,1-.672,2.672A6.1,6.1,0,0,1,28.7-1.136,7.959,7.959,0,0,1,26.384,0a8.309,8.309,0,0,1-2.416.384A9.89,9.89,0,0,1,21.12,0a6.7,6.7,0,0,1-2.192-1.088A4.84,4.84,0,0,1,17.52-2.8a4.968,4.968,0,0,1-.5-2.224,3.026,3.026,0,0,1,.448-1.76,6.61,6.61,0,0,1,.9-1.056,12.837,12.837,0,0,1,1.344-.96q.9-.576,1.632-.992A10.037,10.037,0,0,1,20-10.672a6.461,6.461,0,0,1-1.12-1.1,5.233,5.233,0,0,1-.768-1.344,4.444,4.444,0,0,1-.288-1.632,4.96,4.96,0,0,1,.48-2.16,5.381,5.381,0,0,1,1.344-1.76,6.651,6.651,0,0,1,2.064-1.2A7.494,7.494,0,0,1,24.352-20.32ZM23.9-19.008a2.027,2.027,0,0,0-1.024.256,2.476,2.476,0,0,0-.752.656,2.981,2.981,0,0,0-.464.9,3.264,3.264,0,0,0-.16,1.008,3.288,3.288,0,0,0,.3,1.456,3.706,3.706,0,0,0,.848,1.12,7.976,7.976,0,0,0,1.3.944,16.369,16.369,0,0,0,1.68.864,3.954,3.954,0,0,0,.8-1.168,5.081,5.081,0,0,0,.384-2.192,5.086,5.086,0,0,0-.272-1.76,3.535,3.535,0,0,0-.7-1.2A2.662,2.662,0,0,0,24.9-18.8,2.629,2.629,0,0,0,23.9-19.008Zm.352,18.08a2.75,2.75,0,0,0,2.192-.944,3.64,3.64,0,0,0,.784-2.544A3.685,3.685,0,0,0,26.9-5.9a3.86,3.86,0,0,0-.88-1.152A7.872,7.872,0,0,0,24.56-8.08q-.88-.5-2.032-1.136A4.214,4.214,0,0,0,21.344-7.68a5.078,5.078,0,0,0-.48,2.24,5.794,5.794,0,0,0,.32,2.016,4.433,4.433,0,0,0,.8,1.408,3.177,3.177,0,0,0,1.088.816A2.889,2.889,0,0,0,24.256-.928ZM35.264,0V-1.088a8.694,8.694,0,0,0,1.52-.208,1.665,1.665,0,0,0,.848-.464A1.591,1.591,0,0,0,38-2.608,9.679,9.679,0,0,0,38.08-4V-15.616a8.3,8.3,0,0,0-.048-.992,1.332,1.332,0,0,0-.192-.592.745.745,0,0,0-.432-.288,3.959,3.959,0,0,0-.768-.112l-1.632-.128v-.928q1.6-.256,3.392-.672t3.9-.992V-4a9.4,9.4,0,0,0,.08,1.36,1.765,1.765,0,0,0,.352.864,1.517,1.517,0,0,0,.832.48,8.694,8.694,0,0,0,1.52.208V0Z" transform="translate(7 32)" fill="#fff"/>
          <path id="パス_915" data-name="パス 915" d="M6.016-7.84v-.624l1.632.624h4.816l.7-.8,1.44,1.072a.532.532,0,0,1-.2.168,1.43,1.43,0,0,1-.392.12v3.472q0,.048-.336.192a2.312,2.312,0,0,1-.9.144h-.272v-3.9H7.472v3.76q0,.08-.32.224a2.19,2.19,0,0,1-.88.144H6.016Zm.672,1.632h6.32v.448H6.688Zm0,1.7h6.24v.464H6.688ZM4.672-9.3h8.512l.9-1.1.16.128q.16.128.408.32t.52.424q.272.232.512.44-.064.256-.432.256H4.8Zm.7-2.672h7.3l.88-1.088.16.12q.16.12.416.32t.528.424q.272.224.5.432-.064.256-.432.256H5.5ZM8.944-3.68a5.04,5.04,0,0,1,1.552.224,2.221,2.221,0,0,1,.888.52,1.188,1.188,0,0,1,.344.624.776.776,0,0,1-.1.544.71.71,0,0,1-.432.312.848.848,0,0,1-.64-.112,2.371,2.371,0,0,0-.4-.744,5.269,5.269,0,0,0-.64-.7,4,4,0,0,0-.72-.528Zm3.776.768a5.608,5.608,0,0,1,1.68.624,2.845,2.845,0,0,1,.9.808,1.538,1.538,0,0,1,.288.808A.942.942,0,0,1,15.4-.04a.737.737,0,0,1-.52.28.977.977,0,0,1-.688-.256,3.365,3.365,0,0,0-.312-1A5.947,5.947,0,0,0,13.288-2a5.572,5.572,0,0,0-.712-.8Zm-5.6-8.64a3.868,3.868,0,0,1,1.288.472,1.64,1.64,0,0,1,.608.608.863.863,0,0,1,.08.6.79.79,0,0,1-.3.456.783.783,0,0,1-.528.152,1.035,1.035,0,0,1-.608-.272,3.36,3.36,0,0,0-.248-1.048,4.713,4.713,0,0,0-.456-.888ZM9.136-13.5l2.048.176a.4.4,0,0,1-.128.264.789.789,0,0,1-.4.152v1.264H9.136Zm2.256,1.9,2.1.5a.359.359,0,0,1-.176.232.8.8,0,0,1-.416.088q-.384.384-.936.872t-1.048.872H10.64q.192-.544.408-1.272T11.392-11.6ZM7.44-2.944l1.808.176a.389.389,0,0,1-.128.248.611.611,0,0,1-.336.136V-.368q0,.144.088.184a1.329,1.329,0,0,0,.424.04h2.432a1.088,1.088,0,0,0,.2-.04.224.224,0,0,0,.12-.1,2.572,2.572,0,0,0,.224-.488q.128-.344.272-.792h.176l.064,1.3a.887.887,0,0,1,.4.24.492.492,0,0,1,.1.3.57.57,0,0,1-.24.472,1.856,1.856,0,0,1-.848.264,14.322,14.322,0,0,1-1.744.08H8.976a3.478,3.478,0,0,1-.984-.1.661.661,0,0,1-.44-.368A1.859,1.859,0,0,1,7.44-.1Zm-1.312.112h.256a3.5,3.5,0,0,1,.232,1.456A2.266,2.266,0,0,1,6.288-.32a1.6,1.6,0,0,1-.64.592A1.159,1.159,0,0,1,4.9.344.663.663,0,0,1,4.4-.1.682.682,0,0,1,4.5-.72a1.22,1.22,0,0,1,.52-.384,2.23,2.23,0,0,0,.768-.664A1.543,1.543,0,0,0,6.128-2.832ZM2.368-8.5l.608-.8,1.376.5q-.08.24-.5.3V.88q0,.064-.184.168a2.5,2.5,0,0,1-.456.192,1.86,1.86,0,0,1-.576.088H2.368ZM3.616-13.5l2.208.672a.454.454,0,0,1-.2.24.712.712,0,0,1-.424.08,24.354,24.354,0,0,1-1.272,2.88,19.05,19.05,0,0,1-1.552,2.5A14.661,14.661,0,0,1,.592-5.12L.384-5.264A20.684,20.684,0,0,0,1.616-7.616q.608-1.344,1.128-2.856A30.427,30.427,0,0,0,3.616-13.5Z" transform="translate(58 31)" fill="#fff"/>
        </g>
      </g>
      <path id="パス_932" data-name="パス 932" d="M10.406-3.586q-.264.968-.473,1.925T9.548,0H.726V-.572q.88-.858,1.793-1.76T4.246-4.2a13.689,13.689,0,0,0,1.793-2.64A5.565,5.565,0,0,0,6.666-9.35a2.939,2.939,0,0,0-.583-1.881,2.069,2.069,0,0,0-1.727-.737,2.5,2.5,0,0,0-.924.165,3.52,3.52,0,0,0-.781.429,4.079,4.079,0,0,0-.671.616,7.2,7.2,0,0,0-.572.748L.77-10.538l1.408-2.068A5.2,5.2,0,0,1,3.63-13.6,4.434,4.434,0,0,1,5.5-13.97a4.471,4.471,0,0,1,1.54.264,3.762,3.762,0,0,1,1.276.77A3.64,3.64,0,0,1,9.185-11.7a4.063,4.063,0,0,1,.319,1.65A4.392,4.392,0,0,1,9.328-8.8a5.175,5.175,0,0,1-.55,1.21,9.029,9.029,0,0,1-.957,1.276q-.583.66-1.4,1.43L3.784-2.376H7.37q.484,0,.8-.033a1.281,1.281,0,0,0,.55-.176,1.563,1.563,0,0,0,.44-.44q.209-.3.517-.825ZM16.5-13.97a3.925,3.925,0,0,1,2.321.66,4.9,4.9,0,0,1,1.5,1.694,7.9,7.9,0,0,1,.8,2.3,13.047,13.047,0,0,1,.242,2.453,13.156,13.156,0,0,1-.242,2.475,7.9,7.9,0,0,1-.8,2.3A4.9,4.9,0,0,1,18.821-.4,3.925,3.925,0,0,1,16.5.264,3.925,3.925,0,0,1,14.179-.4,4.979,4.979,0,0,1,12.672-2.1a7.854,7.854,0,0,1-.814-2.3,12.875,12.875,0,0,1-.242-2.442,12.769,12.769,0,0,1,.253-2.486,7.777,7.777,0,0,1,.825-2.3A5.042,5.042,0,0,1,14.2-13.31,3.886,3.886,0,0,1,16.5-13.97Zm-.022.9a1.06,1.06,0,0,0-.924.55,4.653,4.653,0,0,0-.561,1.419,12.069,12.069,0,0,0-.286,1.969q-.077,1.1-.077,2.2,0,1.122.1,2.244a13.638,13.638,0,0,0,.319,2.024A4.786,4.786,0,0,0,15.631-1.2a1.066,1.066,0,0,0,.913.561,1.043,1.043,0,0,0,.9-.55,4.651,4.651,0,0,0,.561-1.441,12.654,12.654,0,0,0,.286-2.013q.077-1.122.077-2.266,0-1.166-.1-2.277a12.42,12.42,0,0,0-.319-1.969,4.355,4.355,0,0,0-.583-1.386A1.06,1.06,0,0,0,16.478-13.068ZM32.406-3.586q-.264.968-.473,1.925T31.548,0H22.726V-.572q.88-.858,1.793-1.76T26.246-4.2a13.689,13.689,0,0,0,1.793-2.64,5.565,5.565,0,0,0,.627-2.508,2.939,2.939,0,0,0-.583-1.881,2.069,2.069,0,0,0-1.727-.737,2.5,2.5,0,0,0-.924.165,3.52,3.52,0,0,0-.781.429,4.079,4.079,0,0,0-.671.616,7.2,7.2,0,0,0-.572.748l-.638-.528,1.408-2.068a5.2,5.2,0,0,1,1.452-.99,4.434,4.434,0,0,1,1.87-.374,4.471,4.471,0,0,1,1.54.264,3.762,3.762,0,0,1,1.276.77,3.64,3.64,0,0,1,.869,1.232,4.063,4.063,0,0,1,.319,1.65A4.392,4.392,0,0,1,31.328-8.8a5.175,5.175,0,0,1-.55,1.21,9.029,9.029,0,0,1-.957,1.276q-.583.66-1.4,1.43l-2.64,2.508H29.37q.484,0,.8-.033a1.281,1.281,0,0,0,.55-.176,1.563,1.563,0,0,0,.44-.44q.209-.3.517-.825Zm9.306-.242v1.386a5.752,5.752,0,0,0,.044.8.836.836,0,0,0,.231.484,1.065,1.065,0,0,0,.539.264,9.515,9.515,0,0,0,.968.143V0H36.938V-.748a7.765,7.765,0,0,0,1.1-.165,1.255,1.255,0,0,0,.594-.3.877.877,0,0,0,.242-.517,6.261,6.261,0,0,0,.044-.825V-3.828H33.33v-.9q1.782-2.53,3.5-4.851t3.3-4.257h1.584v8.756h1.98v1.254Zm-2.794-7.018h-.044q-.792,1.1-1.8,2.574t-2.09,3.19h3.938Z" transform="translate(771 6039)" fill="#1f3c88"/>
      <g id="グループ_4780" data-name="グループ 4780" transform="translate(-2)">
        <g id="長方形_2107-3" data-name="長方形 2107" transform="translate(747 5859)" fill="none" stroke="#1f3c88" stroke-width="2">
          <rect width="96" height="148" stroke="none"/>
          <rect x="1" y="1" width="94" height="146" fill="none"/>
        </g>
        <g id="グループ_4778-3" data-name="グループ 4778" transform="translate(760 5866)">
          <path id="パス_919" data-name="パス 919" d="M3.264,0V-1.088A8.694,8.694,0,0,0,4.784-1.3a1.665,1.665,0,0,0,.848-.464A1.591,1.591,0,0,0,6-2.608,9.679,9.679,0,0,0,6.08-4V-15.616a8.3,8.3,0,0,0-.048-.992A1.332,1.332,0,0,0,5.84-17.2a.745.745,0,0,0-.432-.288A3.959,3.959,0,0,0,4.64-17.6l-1.632-.128v-.928q1.6-.256,3.392-.672t3.9-.992V-4a9.4,9.4,0,0,0,.08,1.36,1.765,1.765,0,0,0,.352.864,1.517,1.517,0,0,0,.832.48,8.694,8.694,0,0,0,1.52.208V0ZM17.792-16.192l1.568-2.144a7.664,7.664,0,0,1,1.824-1.36,5.585,5.585,0,0,1,2.752-.624A5.592,5.592,0,0,1,27.792-19.1a3.978,3.978,0,0,1,1.36,3.1,2.492,2.492,0,0,1-.288,1.184,3.6,3.6,0,0,1-.736.96,10.953,10.953,0,0,1-.992.752q-.544.368-1.376.88v.064a5.822,5.822,0,0,1,3.568,1.824,4.839,4.839,0,0,1,1.2,3.232A5.221,5.221,0,0,1,30-4.736a7.216,7.216,0,0,1-1.36,1.888,9.4,9.4,0,0,1-1.856,1.44A14.8,14.8,0,0,1,24.768-.4a11.908,11.908,0,0,1-1.856.592,6.653,6.653,0,0,1-1.344.192,6.423,6.423,0,0,1-2.16-.336,5,5,0,0,1-1.424-.72,1.7,1.7,0,0,1-.736-1.28,1.314,1.314,0,0,1,.3-.832,3.967,3.967,0,0,1,.624-.64,1.15,1.15,0,0,1,.576-.256.937.937,0,0,1,.64.224q.256.224.672.576a7.38,7.38,0,0,0,.944.672,7.212,7.212,0,0,0,1.152.56,3.667,3.667,0,0,0,1.328.24,2.545,2.545,0,0,0,2.048-1.024,5.227,5.227,0,0,0,.832-3.3,4.838,4.838,0,0,0-.352-1.952A3.516,3.516,0,0,0,25.1-8.96a3.627,3.627,0,0,0-1.248-.7,4.282,4.282,0,0,0-1.328-.224,6.67,6.67,0,0,0-.912.064,6.51,6.51,0,0,0-.816.16l-.224-1.088a11.3,11.3,0,0,0,3.312-1.664,3.025,3.025,0,0,0,1.3-2.5,2.72,2.72,0,0,0-.832-2.24,2.968,2.968,0,0,0-1.92-.672,3.467,3.467,0,0,0-2.1.64,8.18,8.18,0,0,0-1.712,1.76ZM40-20.32a5.708,5.708,0,0,1,3.376.96A7.132,7.132,0,0,1,45.552-16.9a11.493,11.493,0,0,1,1.168,3.344,18.977,18.977,0,0,1,.352,3.568,19.136,19.136,0,0,1-.352,3.6A11.493,11.493,0,0,1,45.552-3.04,7.132,7.132,0,0,1,43.376-.576,5.708,5.708,0,0,1,40,.384a5.708,5.708,0,0,1-3.376-.96,7.242,7.242,0,0,1-2.192-2.48A11.424,11.424,0,0,1,33.248-6.4,18.728,18.728,0,0,1,32.9-9.952a18.573,18.573,0,0,1,.368-3.616,11.312,11.312,0,0,1,1.2-3.344,7.334,7.334,0,0,1,2.192-2.448A5.652,5.652,0,0,1,40-20.32Zm-.032,1.312a1.541,1.541,0,0,0-1.344.8,6.769,6.769,0,0,0-.816,2.064,17.554,17.554,0,0,0-.416,2.864q-.112,1.6-.112,3.2,0,1.632.144,3.264a19.837,19.837,0,0,0,.464,2.944,6.961,6.961,0,0,0,.848,2.128,1.55,1.55,0,0,0,1.328.816,1.518,1.518,0,0,0,1.312-.8,6.765,6.765,0,0,0,.816-2.1,18.4,18.4,0,0,0,.416-2.928q.112-1.632.112-3.3,0-1.7-.144-3.312a18.065,18.065,0,0,0-.464-2.864,6.334,6.334,0,0,0-.848-2.016A1.542,1.542,0,0,0,39.968-19.008Z" transform="translate(3 32)" fill="#1f3c88"/>
          <path id="パス_920" data-name="パス 920" d="M6.016-7.84v-.624l1.632.624h4.816l.7-.8,1.44,1.072a.532.532,0,0,1-.2.168,1.43,1.43,0,0,1-.392.12v3.472q0,.048-.336.192a2.312,2.312,0,0,1-.9.144h-.272v-3.9H7.472v3.76q0,.08-.32.224a2.19,2.19,0,0,1-.88.144H6.016Zm.672,1.632h6.32v.448H6.688Zm0,1.7h6.24v.464H6.688ZM4.672-9.3h8.512l.9-1.1.16.128q.16.128.408.32t.52.424q.272.232.512.44-.064.256-.432.256H4.8Zm.7-2.672h7.3l.88-1.088.16.12q.16.12.416.32t.528.424q.272.224.5.432-.064.256-.432.256H5.5ZM8.944-3.68a5.04,5.04,0,0,1,1.552.224,2.221,2.221,0,0,1,.888.52,1.188,1.188,0,0,1,.344.624.776.776,0,0,1-.1.544.71.71,0,0,1-.432.312.848.848,0,0,1-.64-.112,2.371,2.371,0,0,0-.4-.744,5.269,5.269,0,0,0-.64-.7,4,4,0,0,0-.72-.528Zm3.776.768a5.608,5.608,0,0,1,1.68.624,2.845,2.845,0,0,1,.9.808,1.538,1.538,0,0,1,.288.808A.942.942,0,0,1,15.4-.04a.737.737,0,0,1-.52.28.977.977,0,0,1-.688-.256,3.365,3.365,0,0,0-.312-1A5.947,5.947,0,0,0,13.288-2a5.572,5.572,0,0,0-.712-.8Zm-5.6-8.64a3.868,3.868,0,0,1,1.288.472,1.64,1.64,0,0,1,.608.608.863.863,0,0,1,.08.6.79.79,0,0,1-.3.456.783.783,0,0,1-.528.152,1.035,1.035,0,0,1-.608-.272,3.36,3.36,0,0,0-.248-1.048,4.713,4.713,0,0,0-.456-.888ZM9.136-13.5l2.048.176a.4.4,0,0,1-.128.264.789.789,0,0,1-.4.152v1.264H9.136Zm2.256,1.9,2.1.5a.359.359,0,0,1-.176.232.8.8,0,0,1-.416.088q-.384.384-.936.872t-1.048.872H10.64q.192-.544.408-1.272T11.392-11.6ZM7.44-2.944l1.808.176a.389.389,0,0,1-.128.248.611.611,0,0,1-.336.136V-.368q0,.144.088.184a1.329,1.329,0,0,0,.424.04h2.432a1.088,1.088,0,0,0,.2-.04.224.224,0,0,0,.12-.1,2.572,2.572,0,0,0,.224-.488q.128-.344.272-.792h.176l.064,1.3a.887.887,0,0,1,.4.24.492.492,0,0,1,.1.3.57.57,0,0,1-.24.472,1.856,1.856,0,0,1-.848.264,14.322,14.322,0,0,1-1.744.08H8.976a3.478,3.478,0,0,1-.984-.1.661.661,0,0,1-.44-.368A1.859,1.859,0,0,1,7.44-.1Zm-1.312.112h.256a3.5,3.5,0,0,1,.232,1.456A2.266,2.266,0,0,1,6.288-.32a1.6,1.6,0,0,1-.64.592A1.159,1.159,0,0,1,4.9.344.663.663,0,0,1,4.4-.1.682.682,0,0,1,4.5-.72a1.22,1.22,0,0,1,.52-.384,2.23,2.23,0,0,0,.768-.664A1.543,1.543,0,0,0,6.128-2.832ZM2.368-8.5l.608-.8,1.376.5q-.08.24-.5.3V.88q0,.064-.184.168a2.5,2.5,0,0,1-.456.192,1.86,1.86,0,0,1-.576.088H2.368ZM3.616-13.5l2.208.672a.454.454,0,0,1-.2.24.712.712,0,0,1-.424.08,24.354,24.354,0,0,1-1.272,2.88,19.05,19.05,0,0,1-1.552,2.5A14.661,14.661,0,0,1,.592-5.12L.384-5.264A20.684,20.684,0,0,0,1.616-7.616q.608-1.344,1.128-2.856A30.427,30.427,0,0,0,3.616-13.5Z" transform="translate(53 31)" fill="#1f3c88"/>
        </g>
      </g>
      <path id="パス_931" data-name="パス 931" d="M10.406-3.586q-.264.968-.473,1.925T9.548,0H.726V-.572q.88-.858,1.793-1.76T4.246-4.2a13.689,13.689,0,0,0,1.793-2.64A5.565,5.565,0,0,0,6.666-9.35a2.939,2.939,0,0,0-.583-1.881,2.069,2.069,0,0,0-1.727-.737,2.5,2.5,0,0,0-.924.165,3.52,3.52,0,0,0-.781.429,4.079,4.079,0,0,0-.671.616,7.2,7.2,0,0,0-.572.748L.77-10.538l1.408-2.068A5.2,5.2,0,0,1,3.63-13.6,4.434,4.434,0,0,1,5.5-13.97a4.471,4.471,0,0,1,1.54.264,3.762,3.762,0,0,1,1.276.77A3.64,3.64,0,0,1,9.185-11.7a4.063,4.063,0,0,1,.319,1.65A4.392,4.392,0,0,1,9.328-8.8a5.175,5.175,0,0,1-.55,1.21,9.029,9.029,0,0,1-.957,1.276q-.583.66-1.4,1.43L3.784-2.376H7.37q.484,0,.8-.033a1.281,1.281,0,0,0,.55-.176,1.563,1.563,0,0,0,.44-.44q.209-.3.517-.825ZM16.5-13.97a3.925,3.925,0,0,1,2.321.66,4.9,4.9,0,0,1,1.5,1.694,7.9,7.9,0,0,1,.8,2.3,13.047,13.047,0,0,1,.242,2.453,13.156,13.156,0,0,1-.242,2.475,7.9,7.9,0,0,1-.8,2.3A4.9,4.9,0,0,1,18.821-.4,3.925,3.925,0,0,1,16.5.264,3.925,3.925,0,0,1,14.179-.4,4.979,4.979,0,0,1,12.672-2.1a7.854,7.854,0,0,1-.814-2.3,12.875,12.875,0,0,1-.242-2.442,12.769,12.769,0,0,1,.253-2.486,7.777,7.777,0,0,1,.825-2.3A5.042,5.042,0,0,1,14.2-13.31,3.886,3.886,0,0,1,16.5-13.97Zm-.022.9a1.06,1.06,0,0,0-.924.55,4.653,4.653,0,0,0-.561,1.419,12.069,12.069,0,0,0-.286,1.969q-.077,1.1-.077,2.2,0,1.122.1,2.244a13.638,13.638,0,0,0,.319,2.024A4.786,4.786,0,0,0,15.631-1.2a1.066,1.066,0,0,0,.913.561,1.043,1.043,0,0,0,.9-.55,4.651,4.651,0,0,0,.561-1.441,12.654,12.654,0,0,0,.286-2.013q.077-1.122.077-2.266,0-1.166-.1-2.277a12.42,12.42,0,0,0-.319-1.969,4.355,4.355,0,0,0-.583-1.386A1.06,1.06,0,0,0,16.478-13.068ZM32.406-3.586q-.264.968-.473,1.925T31.548,0H22.726V-.572q.88-.858,1.793-1.76T26.246-4.2a13.689,13.689,0,0,0,1.793-2.64,5.565,5.565,0,0,0,.627-2.508,2.939,2.939,0,0,0-.583-1.881,2.069,2.069,0,0,0-1.727-.737,2.5,2.5,0,0,0-.924.165,3.52,3.52,0,0,0-.781.429,4.079,4.079,0,0,0-.671.616,7.2,7.2,0,0,0-.572.748l-.638-.528,1.408-2.068a5.2,5.2,0,0,1,1.452-.99,4.434,4.434,0,0,1,1.87-.374,4.471,4.471,0,0,1,1.54.264,3.762,3.762,0,0,1,1.276.77,3.64,3.64,0,0,1,.869,1.232,4.063,4.063,0,0,1,.319,1.65A4.392,4.392,0,0,1,31.328-8.8a5.175,5.175,0,0,1-.55,1.21,9.029,9.029,0,0,1-.957,1.276q-.583.66-1.4,1.43l-2.64,2.508H29.37q.484,0,.8-.033a1.281,1.281,0,0,0,.55-.176,1.563,1.563,0,0,0,.44-.44q.209-.3.517-.825Zm1.826-7.546,1.078-1.474a5.269,5.269,0,0,1,1.254-.935,3.839,3.839,0,0,1,1.892-.429,3.844,3.844,0,0,1,2.651.836A2.735,2.735,0,0,1,42.042-11a1.713,1.713,0,0,1-.2.814,2.473,2.473,0,0,1-.506.66,7.53,7.53,0,0,1-.682.517q-.374.253-.946.605v.044a4,4,0,0,1,2.453,1.254,3.327,3.327,0,0,1,.825,2.222,3.59,3.59,0,0,1-.363,1.628,4.961,4.961,0,0,1-.935,1.3,6.463,6.463,0,0,1-1.276.99,10.177,10.177,0,0,1-1.386.693,8.187,8.187,0,0,1-1.276.407,4.574,4.574,0,0,1-.924.132A4.416,4.416,0,0,1,35.343.033a3.44,3.44,0,0,1-.979-.5,1.165,1.165,0,0,1-.506-.88.9.9,0,0,1,.209-.572,2.728,2.728,0,0,1,.429-.44.791.791,0,0,1,.4-.176.644.644,0,0,1,.44.154q.176.154.462.4a5.074,5.074,0,0,0,.649.462,4.959,4.959,0,0,0,.792.385,2.521,2.521,0,0,0,.913.165,1.75,1.75,0,0,0,1.408-.7,3.593,3.593,0,0,0,.572-2.266,3.326,3.326,0,0,0-.242-1.342,2.417,2.417,0,0,0-.627-.88,2.493,2.493,0,0,0-.858-.484,2.944,2.944,0,0,0-.913-.154,4.586,4.586,0,0,0-.627.044,4.476,4.476,0,0,0-.561.11l-.154-.748a7.77,7.77,0,0,0,2.277-1.144,2.08,2.08,0,0,0,.891-1.716,1.87,1.87,0,0,0-.572-1.54,2.041,2.041,0,0,0-1.32-.462,2.384,2.384,0,0,0-1.441.44A5.624,5.624,0,0,0,34.8-10.6Z" transform="translate(643 6039)" fill="#1f3c88"/>
      <g id="グループ_4779" data-name="グループ 4779" transform="translate(-9)">
        <g id="長方形_2107-4" data-name="長方形 2107" transform="translate(626 5884)" fill="none" stroke="#1f3c88" stroke-width="2">
          <rect width="96" height="123" stroke="none"/>
          <rect x="1" y="1" width="94" height="121" fill="none"/>
        </g>
        <g id="グループ_4778-4" data-name="グループ 4778" transform="translate(638 5891)">
          <path id="パス_921" data-name="パス 921" d="M3.264,0V-1.088A8.694,8.694,0,0,0,4.784-1.3a1.665,1.665,0,0,0,.848-.464A1.591,1.591,0,0,0,6-2.608,9.679,9.679,0,0,0,6.08-4V-15.616a8.3,8.3,0,0,0-.048-.992A1.332,1.332,0,0,0,5.84-17.2a.745.745,0,0,0-.432-.288A3.959,3.959,0,0,0,4.64-17.6l-1.632-.128v-.928q1.6-.256,3.392-.672t3.9-.992V-4a9.4,9.4,0,0,0,.08,1.36,1.765,1.765,0,0,0,.352.864,1.517,1.517,0,0,0,.832.48,8.694,8.694,0,0,0,1.52.208V0Zm16,0V-1.088a8.694,8.694,0,0,0,1.52-.208,1.665,1.665,0,0,0,.848-.464A1.591,1.591,0,0,0,22-2.608,9.679,9.679,0,0,0,22.08-4V-15.616a8.3,8.3,0,0,0-.048-.992,1.332,1.332,0,0,0-.192-.592.745.745,0,0,0-.432-.288,3.959,3.959,0,0,0-.768-.112l-1.632-.128v-.928q1.6-.256,3.392-.672t3.9-.992V-4a9.4,9.4,0,0,0,.08,1.36,1.765,1.765,0,0,0,.352.864,1.517,1.517,0,0,0,.832.48,8.694,8.694,0,0,0,1.52.208V0ZM36-11.552a23.671,23.671,0,0,1,2.336-.752,7.564,7.564,0,0,1,1.792-.3,7.654,7.654,0,0,1,2.72.448,6.094,6.094,0,0,1,2,1.2A5.189,5.189,0,0,1,46.1-9.232a4.895,4.895,0,0,1,.432,2,5.827,5.827,0,0,1-.768,2.88A7.935,7.935,0,0,1,43.3-1.792,11.471,11.471,0,0,1,40.352-.224a9.618,9.618,0,0,1-3.04.608A6.18,6.18,0,0,1,35.44.1,4.322,4.322,0,0,1,33.984-.64a2.287,2.287,0,0,1-.624-.672,1.411,1.411,0,0,1-.144-.64,1.688,1.688,0,0,1,.288-.832,2.642,2.642,0,0,1,.736-.8q.512-.352,1.152.192.288.256.72.592a8.337,8.337,0,0,0,.96.64,6.284,6.284,0,0,0,1.152.512,4.071,4.071,0,0,0,1.3.208,2.429,2.429,0,0,0,2.224-1.168,5.557,5.557,0,0,0,.72-2.96A4.716,4.716,0,0,0,41.2-9.008a4.626,4.626,0,0,0-3.472-1.3,8.73,8.73,0,0,0-2.048.224q-.928.224-1.44.384l1.44-10.24H45.824l.192.32L44.992-16.48H36.864Z" transform="translate(6 33)" fill="#1f3c88"/>
          <path id="パス_922" data-name="パス 922" d="M6.016-7.84v-.624l1.632.624h4.816l.7-.8,1.44,1.072a.532.532,0,0,1-.2.168,1.43,1.43,0,0,1-.392.12v3.472q0,.048-.336.192a2.312,2.312,0,0,1-.9.144h-.272v-3.9H7.472v3.76q0,.08-.32.224a2.19,2.19,0,0,1-.88.144H6.016Zm.672,1.632h6.32v.448H6.688Zm0,1.7h6.24v.464H6.688ZM4.672-9.3h8.512l.9-1.1.16.128q.16.128.408.32t.52.424q.272.232.512.44-.064.256-.432.256H4.8Zm.7-2.672h7.3l.88-1.088.16.12q.16.12.416.32t.528.424q.272.224.5.432-.064.256-.432.256H5.5ZM8.944-3.68a5.04,5.04,0,0,1,1.552.224,2.221,2.221,0,0,1,.888.52,1.188,1.188,0,0,1,.344.624.776.776,0,0,1-.1.544.71.71,0,0,1-.432.312.848.848,0,0,1-.64-.112,2.371,2.371,0,0,0-.4-.744,5.269,5.269,0,0,0-.64-.7,4,4,0,0,0-.72-.528Zm3.776.768a5.608,5.608,0,0,1,1.68.624,2.845,2.845,0,0,1,.9.808,1.538,1.538,0,0,1,.288.808A.942.942,0,0,1,15.4-.04a.737.737,0,0,1-.52.28.977.977,0,0,1-.688-.256,3.365,3.365,0,0,0-.312-1A5.947,5.947,0,0,0,13.288-2a5.572,5.572,0,0,0-.712-.8Zm-5.6-8.64a3.868,3.868,0,0,1,1.288.472,1.64,1.64,0,0,1,.608.608.863.863,0,0,1,.08.6.79.79,0,0,1-.3.456.783.783,0,0,1-.528.152,1.035,1.035,0,0,1-.608-.272,3.36,3.36,0,0,0-.248-1.048,4.713,4.713,0,0,0-.456-.888ZM9.136-13.5l2.048.176a.4.4,0,0,1-.128.264.789.789,0,0,1-.4.152v1.264H9.136Zm2.256,1.9,2.1.5a.359.359,0,0,1-.176.232.8.8,0,0,1-.416.088q-.384.384-.936.872t-1.048.872H10.64q.192-.544.408-1.272T11.392-11.6ZM7.44-2.944l1.808.176a.389.389,0,0,1-.128.248.611.611,0,0,1-.336.136V-.368q0,.144.088.184a1.329,1.329,0,0,0,.424.04h2.432a1.088,1.088,0,0,0,.2-.04.224.224,0,0,0,.12-.1,2.572,2.572,0,0,0,.224-.488q.128-.344.272-.792h.176l.064,1.3a.887.887,0,0,1,.4.24.492.492,0,0,1,.1.3.57.57,0,0,1-.24.472,1.856,1.856,0,0,1-.848.264,14.322,14.322,0,0,1-1.744.08H8.976a3.478,3.478,0,0,1-.984-.1.661.661,0,0,1-.44-.368A1.859,1.859,0,0,1,7.44-.1Zm-1.312.112h.256a3.5,3.5,0,0,1,.232,1.456A2.266,2.266,0,0,1,6.288-.32a1.6,1.6,0,0,1-.64.592A1.159,1.159,0,0,1,4.9.344.663.663,0,0,1,4.4-.1.682.682,0,0,1,4.5-.72a1.22,1.22,0,0,1,.52-.384,2.23,2.23,0,0,0,.768-.664A1.543,1.543,0,0,0,6.128-2.832ZM2.368-8.5l.608-.8,1.376.5q-.08.24-.5.3V.88q0,.064-.184.168a2.5,2.5,0,0,1-.456.192,1.86,1.86,0,0,1-.576.088H2.368ZM3.616-13.5l2.208.672a.454.454,0,0,1-.2.24.712.712,0,0,1-.424.08,24.354,24.354,0,0,1-1.272,2.88,19.05,19.05,0,0,1-1.552,2.5A14.661,14.661,0,0,1,.592-5.12L.384-5.264A20.684,20.684,0,0,0,1.616-7.616q.608-1.344,1.128-2.856A30.427,30.427,0,0,0,3.616-13.5Z" transform="translate(55 31)" fill="#1f3c88"/>
        </g>
      </g>
      <g id="長方形_2107-5" data-name="長方形 2107" transform="translate(489 5921)" fill="none" stroke="#1f3c88" stroke-width="2">
        <rect width="96" height="86" stroke="none"/>
        <rect x="1" y="1" width="94" height="84" fill="none"/>
      </g>
      <path id="パス_929" data-name="パス 929" d="M10.406-3.586q-.264.968-.473,1.925T9.548,0H.726V-.572q.88-.858,1.793-1.76T4.246-4.2a13.689,13.689,0,0,0,1.793-2.64A5.565,5.565,0,0,0,6.666-9.35a2.939,2.939,0,0,0-.583-1.881,2.069,2.069,0,0,0-1.727-.737,2.5,2.5,0,0,0-.924.165,3.52,3.52,0,0,0-.781.429,4.079,4.079,0,0,0-.671.616,7.2,7.2,0,0,0-.572.748L.77-10.538l1.408-2.068A5.2,5.2,0,0,1,3.63-13.6,4.434,4.434,0,0,1,5.5-13.97a4.471,4.471,0,0,1,1.54.264,3.762,3.762,0,0,1,1.276.77A3.64,3.64,0,0,1,9.185-11.7a4.063,4.063,0,0,1,.319,1.65A4.392,4.392,0,0,1,9.328-8.8a5.175,5.175,0,0,1-.55,1.21,9.029,9.029,0,0,1-.957,1.276q-.583.66-1.4,1.43L3.784-2.376H7.37q.484,0,.8-.033a1.281,1.281,0,0,0,.55-.176,1.563,1.563,0,0,0,.44-.44q.209-.3.517-.825ZM16.5-13.97a3.925,3.925,0,0,1,2.321.66,4.9,4.9,0,0,1,1.5,1.694,7.9,7.9,0,0,1,.8,2.3,13.047,13.047,0,0,1,.242,2.453,13.156,13.156,0,0,1-.242,2.475,7.9,7.9,0,0,1-.8,2.3A4.9,4.9,0,0,1,18.821-.4,3.925,3.925,0,0,1,16.5.264,3.925,3.925,0,0,1,14.179-.4,4.979,4.979,0,0,1,12.672-2.1a7.854,7.854,0,0,1-.814-2.3,12.875,12.875,0,0,1-.242-2.442,12.769,12.769,0,0,1,.253-2.486,7.777,7.777,0,0,1,.825-2.3A5.042,5.042,0,0,1,14.2-13.31,3.886,3.886,0,0,1,16.5-13.97Zm-.022.9a1.06,1.06,0,0,0-.924.55,4.653,4.653,0,0,0-.561,1.419,12.069,12.069,0,0,0-.286,1.969q-.077,1.1-.077,2.2,0,1.122.1,2.244a13.638,13.638,0,0,0,.319,2.024A4.786,4.786,0,0,0,15.631-1.2a1.066,1.066,0,0,0,.913.561,1.043,1.043,0,0,0,.9-.55,4.651,4.651,0,0,0,.561-1.441,12.654,12.654,0,0,0,.286-2.013q.077-1.122.077-2.266,0-1.166-.1-2.277a12.42,12.42,0,0,0-.319-1.969,4.355,4.355,0,0,0-.583-1.386A1.06,1.06,0,0,0,16.478-13.068ZM32.406-3.586q-.264.968-.473,1.925T31.548,0H22.726V-.572q.88-.858,1.793-1.76T26.246-4.2a13.689,13.689,0,0,0,1.793-2.64,5.565,5.565,0,0,0,.627-2.508,2.939,2.939,0,0,0-.583-1.881,2.069,2.069,0,0,0-1.727-.737,2.5,2.5,0,0,0-.924.165,3.52,3.52,0,0,0-.781.429,4.079,4.079,0,0,0-.671.616,7.2,7.2,0,0,0-.572.748l-.638-.528,1.408-2.068a5.2,5.2,0,0,1,1.452-.99,4.434,4.434,0,0,1,1.87-.374,4.471,4.471,0,0,1,1.54.264,3.762,3.762,0,0,1,1.276.77,3.64,3.64,0,0,1,.869,1.232,4.063,4.063,0,0,1,.319,1.65A4.392,4.392,0,0,1,31.328-8.8a5.175,5.175,0,0,1-.55,1.21,9.029,9.029,0,0,1-.957,1.276q-.583.66-1.4,1.43l-2.64,2.508H29.37q.484,0,.8-.033a1.281,1.281,0,0,0,.55-.176,1.563,1.563,0,0,0,.44-.44q.209-.3.517-.825Zm11,0q-.264.968-.473,1.925T42.548,0H33.726V-.572q.88-.858,1.793-1.76T37.246-4.2a13.689,13.689,0,0,0,1.793-2.64,5.565,5.565,0,0,0,.627-2.508,2.939,2.939,0,0,0-.583-1.881,2.069,2.069,0,0,0-1.727-.737,2.5,2.5,0,0,0-.924.165,3.52,3.52,0,0,0-.781.429,4.079,4.079,0,0,0-.671.616,7.2,7.2,0,0,0-.572.748l-.638-.528,1.408-2.068a5.2,5.2,0,0,1,1.452-.99,4.434,4.434,0,0,1,1.87-.374,4.471,4.471,0,0,1,1.54.264,3.762,3.762,0,0,1,1.276.77,3.64,3.64,0,0,1,.869,1.232,4.063,4.063,0,0,1,.319,1.65A4.392,4.392,0,0,1,42.328-8.8a5.175,5.175,0,0,1-.55,1.21,9.029,9.029,0,0,1-.957,1.276q-.583.66-1.4,1.43l-2.64,2.508H40.37q.484,0,.8-.033a1.281,1.281,0,0,0,.55-.176,1.563,1.563,0,0,0,.44-.44q.209-.3.517-.825Z" transform="translate(515 6039)" fill="#1f3c88"/>
      <g id="グループ_4778-5" data-name="グループ 4778" transform="translate(500 5924)">
        <path id="パス_924" data-name="パス 924" d="M8.352-20.32a7.453,7.453,0,0,1,2.4.368,5.415,5.415,0,0,1,1.856,1.04,4.835,4.835,0,0,1,1.2,1.584,4.539,4.539,0,0,1,.432,1.968,3.205,3.205,0,0,1-1.056,2.368q-.384.352-.9.752t-1.44,1.008a17.3,17.3,0,0,1,1.6.976,7.69,7.69,0,0,1,1.36,1.184,5.266,5.266,0,0,1,.944,1.488A4.805,4.805,0,0,1,15.1-5.7a5.151,5.151,0,0,1-.672,2.672A6.1,6.1,0,0,1,12.7-1.136,7.959,7.959,0,0,1,10.384,0,8.309,8.309,0,0,1,7.968.384,9.89,9.89,0,0,1,5.12,0,6.7,6.7,0,0,1,2.928-1.088,4.84,4.84,0,0,1,1.52-2.8a4.968,4.968,0,0,1-.5-2.224,3.026,3.026,0,0,1,.448-1.76,6.61,6.61,0,0,1,.9-1.056A12.837,12.837,0,0,1,3.712-8.8q.9-.576,1.632-.992A10.038,10.038,0,0,1,4-10.672a6.461,6.461,0,0,1-1.12-1.1,5.233,5.233,0,0,1-.768-1.344,4.444,4.444,0,0,1-.288-1.632,4.96,4.96,0,0,1,.48-2.16,5.381,5.381,0,0,1,1.344-1.76,6.651,6.651,0,0,1,2.064-1.2A7.494,7.494,0,0,1,8.352-20.32ZM7.9-19.008a2.027,2.027,0,0,0-1.024.256,2.476,2.476,0,0,0-.752.656,2.981,2.981,0,0,0-.464.9,3.264,3.264,0,0,0-.16,1.008,3.288,3.288,0,0,0,.3,1.456,3.706,3.706,0,0,0,.848,1.12,7.976,7.976,0,0,0,1.3.944,16.368,16.368,0,0,0,1.68.864,3.954,3.954,0,0,0,.8-1.168,5.081,5.081,0,0,0,.384-2.192,5.086,5.086,0,0,0-.272-1.76,3.535,3.535,0,0,0-.7-1.2A2.662,2.662,0,0,0,8.9-18.8,2.629,2.629,0,0,0,7.9-19.008ZM8.256-.928a2.75,2.75,0,0,0,2.192-.944,3.64,3.64,0,0,0,.784-2.544A3.685,3.685,0,0,0,10.9-5.9a3.86,3.86,0,0,0-.88-1.152A7.872,7.872,0,0,0,8.56-8.08q-.88-.5-2.032-1.136A4.214,4.214,0,0,0,5.344-7.68a5.078,5.078,0,0,0-.48,2.24,5.794,5.794,0,0,0,.32,2.016,4.433,4.433,0,0,0,.8,1.408A3.177,3.177,0,0,0,7.072-1.2,2.889,2.889,0,0,0,8.256-.928ZM24.992-20.32a7.453,7.453,0,0,1,2.4.368,5.415,5.415,0,0,1,1.856,1.04,4.835,4.835,0,0,1,1.2,1.584,4.539,4.539,0,0,1,.432,1.968,3.205,3.205,0,0,1-1.056,2.368q-.384.352-.9.752t-1.44,1.008a17.3,17.3,0,0,1,1.6.976,7.69,7.69,0,0,1,1.36,1.184,5.266,5.266,0,0,1,.944,1.488A4.805,4.805,0,0,1,31.744-5.7a5.151,5.151,0,0,1-.672,2.672,6.1,6.1,0,0,1-1.728,1.888A7.959,7.959,0,0,1,27.024,0a8.309,8.309,0,0,1-2.416.384A9.89,9.89,0,0,1,21.76,0a6.7,6.7,0,0,1-2.192-1.088A4.84,4.84,0,0,1,18.16-2.8a4.968,4.968,0,0,1-.5-2.224,3.026,3.026,0,0,1,.448-1.76,6.61,6.61,0,0,1,.9-1.056,12.837,12.837,0,0,1,1.344-.96q.9-.576,1.632-.992a10.037,10.037,0,0,1-1.344-.88,6.461,6.461,0,0,1-1.12-1.1,5.233,5.233,0,0,1-.768-1.344,4.444,4.444,0,0,1-.288-1.632,4.96,4.96,0,0,1,.48-2.16,5.381,5.381,0,0,1,1.344-1.76,6.651,6.651,0,0,1,2.064-1.2A7.494,7.494,0,0,1,24.992-20.32Zm-.448,1.312a2.027,2.027,0,0,0-1.024.256,2.476,2.476,0,0,0-.752.656,2.981,2.981,0,0,0-.464.9,3.264,3.264,0,0,0-.16,1.008,3.288,3.288,0,0,0,.3,1.456,3.706,3.706,0,0,0,.848,1.12,7.976,7.976,0,0,0,1.3.944,16.369,16.369,0,0,0,1.68.864,3.954,3.954,0,0,0,.8-1.168,5.081,5.081,0,0,0,.384-2.192,5.086,5.086,0,0,0-.272-1.76,3.535,3.535,0,0,0-.7-1.2,2.662,2.662,0,0,0-.944-.672A2.629,2.629,0,0,0,24.544-19.008ZM24.9-.928a2.75,2.75,0,0,0,2.192-.944,3.64,3.64,0,0,0,.784-2.544A3.685,3.685,0,0,0,27.536-5.9a3.86,3.86,0,0,0-.88-1.152A7.872,7.872,0,0,0,25.2-8.08q-.88-.5-2.032-1.136A4.214,4.214,0,0,0,21.984-7.68a5.078,5.078,0,0,0-.48,2.24,5.794,5.794,0,0,0,.32,2.016,4.433,4.433,0,0,0,.8,1.408,3.177,3.177,0,0,0,1.088.816A2.889,2.889,0,0,0,24.9-.928Z" transform="translate(12 32)" fill="#1f3c88"/>
        <path id="パス_923" data-name="パス 923" d="M6.016-7.84v-.624l1.632.624h4.816l.7-.8,1.44,1.072a.532.532,0,0,1-.2.168,1.43,1.43,0,0,1-.392.12v3.472q0,.048-.336.192a2.312,2.312,0,0,1-.9.144h-.272v-3.9H7.472v3.76q0,.08-.32.224a2.19,2.19,0,0,1-.88.144H6.016Zm.672,1.632h6.32v.448H6.688Zm0,1.7h6.24v.464H6.688ZM4.672-9.3h8.512l.9-1.1.16.128q.16.128.408.32t.52.424q.272.232.512.44-.064.256-.432.256H4.8Zm.7-2.672h7.3l.88-1.088.16.12q.16.12.416.32t.528.424q.272.224.5.432-.064.256-.432.256H5.5ZM8.944-3.68a5.04,5.04,0,0,1,1.552.224,2.221,2.221,0,0,1,.888.52,1.188,1.188,0,0,1,.344.624.776.776,0,0,1-.1.544.71.71,0,0,1-.432.312.848.848,0,0,1-.64-.112,2.371,2.371,0,0,0-.4-.744,5.269,5.269,0,0,0-.64-.7,4,4,0,0,0-.72-.528Zm3.776.768a5.608,5.608,0,0,1,1.68.624,2.845,2.845,0,0,1,.9.808,1.538,1.538,0,0,1,.288.808A.942.942,0,0,1,15.4-.04a.737.737,0,0,1-.52.28.977.977,0,0,1-.688-.256,3.365,3.365,0,0,0-.312-1A5.947,5.947,0,0,0,13.288-2a5.572,5.572,0,0,0-.712-.8Zm-5.6-8.64a3.868,3.868,0,0,1,1.288.472,1.64,1.64,0,0,1,.608.608.863.863,0,0,1,.08.6.79.79,0,0,1-.3.456.783.783,0,0,1-.528.152,1.035,1.035,0,0,1-.608-.272,3.36,3.36,0,0,0-.248-1.048,4.713,4.713,0,0,0-.456-.888ZM9.136-13.5l2.048.176a.4.4,0,0,1-.128.264.789.789,0,0,1-.4.152v1.264H9.136Zm2.256,1.9,2.1.5a.359.359,0,0,1-.176.232.8.8,0,0,1-.416.088q-.384.384-.936.872t-1.048.872H10.64q.192-.544.408-1.272T11.392-11.6ZM7.44-2.944l1.808.176a.389.389,0,0,1-.128.248.611.611,0,0,1-.336.136V-.368q0,.144.088.184a1.329,1.329,0,0,0,.424.04h2.432a1.088,1.088,0,0,0,.2-.04.224.224,0,0,0,.12-.1,2.572,2.572,0,0,0,.224-.488q.128-.344.272-.792h.176l.064,1.3a.887.887,0,0,1,.4.24.492.492,0,0,1,.1.3.57.57,0,0,1-.24.472,1.856,1.856,0,0,1-.848.264,14.322,14.322,0,0,1-1.744.08H8.976a3.478,3.478,0,0,1-.984-.1.661.661,0,0,1-.44-.368A1.859,1.859,0,0,1,7.44-.1Zm-1.312.112h.256a3.5,3.5,0,0,1,.232,1.456A2.266,2.266,0,0,1,6.288-.32a1.6,1.6,0,0,1-.64.592A1.159,1.159,0,0,1,4.9.344.663.663,0,0,1,4.4-.1.682.682,0,0,1,4.5-.72a1.22,1.22,0,0,1,.52-.384,2.23,2.23,0,0,0,.768-.664A1.543,1.543,0,0,0,6.128-2.832ZM2.368-8.5l.608-.8,1.376.5q-.08.24-.5.3V.88q0,.064-.184.168a2.5,2.5,0,0,1-.456.192,1.86,1.86,0,0,1-.576.088H2.368ZM3.616-13.5l2.208.672a.454.454,0,0,1-.2.24.712.712,0,0,1-.424.08,24.354,24.354,0,0,1-1.272,2.88,19.05,19.05,0,0,1-1.552,2.5A14.661,14.661,0,0,1,.592-5.12L.384-5.264A20.684,20.684,0,0,0,1.616-7.616q.608-1.344,1.128-2.856A30.427,30.427,0,0,0,3.616-13.5Z" transform="translate(46 31)" fill="#1f3c88"/>
      </g>
      <g id="長方形_2107-6" data-name="長方形 2107" transform="translate(361 5939)" fill="none" stroke="#1f3c88" stroke-width="2">
        <rect width="96" height="68" stroke="none"/>
        <rect x="1" y="1" width="94" height="66" fill="none"/>
      </g>
      <path id="パス_927" data-name="パス 927" d="M10.406-3.586q-.264.968-.473,1.925T9.548,0H.726V-.572q.88-.858,1.793-1.76T4.246-4.2a13.689,13.689,0,0,0,1.793-2.64A5.565,5.565,0,0,0,6.666-9.35a2.939,2.939,0,0,0-.583-1.881,2.069,2.069,0,0,0-1.727-.737,2.5,2.5,0,0,0-.924.165,3.52,3.52,0,0,0-.781.429,4.079,4.079,0,0,0-.671.616,7.2,7.2,0,0,0-.572.748L.77-10.538l1.408-2.068A5.2,5.2,0,0,1,3.63-13.6,4.434,4.434,0,0,1,5.5-13.97a4.471,4.471,0,0,1,1.54.264,3.762,3.762,0,0,1,1.276.77A3.64,3.64,0,0,1,9.185-11.7a4.063,4.063,0,0,1,.319,1.65A4.392,4.392,0,0,1,9.328-8.8a5.175,5.175,0,0,1-.55,1.21,9.029,9.029,0,0,1-.957,1.276q-.583.66-1.4,1.43L3.784-2.376H7.37q.484,0,.8-.033a1.281,1.281,0,0,0,.55-.176,1.563,1.563,0,0,0,.44-.44q.209-.3.517-.825ZM16.5-13.97a3.925,3.925,0,0,1,2.321.66,4.9,4.9,0,0,1,1.5,1.694,7.9,7.9,0,0,1,.8,2.3,13.047,13.047,0,0,1,.242,2.453,13.156,13.156,0,0,1-.242,2.475,7.9,7.9,0,0,1-.8,2.3A4.9,4.9,0,0,1,18.821-.4,3.925,3.925,0,0,1,16.5.264,3.925,3.925,0,0,1,14.179-.4,4.979,4.979,0,0,1,12.672-2.1a7.854,7.854,0,0,1-.814-2.3,12.875,12.875,0,0,1-.242-2.442,12.769,12.769,0,0,1,.253-2.486,7.777,7.777,0,0,1,.825-2.3A5.042,5.042,0,0,1,14.2-13.31,3.886,3.886,0,0,1,16.5-13.97Zm-.022.9a1.06,1.06,0,0,0-.924.55,4.653,4.653,0,0,0-.561,1.419,12.069,12.069,0,0,0-.286,1.969q-.077,1.1-.077,2.2,0,1.122.1,2.244a13.638,13.638,0,0,0,.319,2.024A4.786,4.786,0,0,0,15.631-1.2a1.066,1.066,0,0,0,.913.561,1.043,1.043,0,0,0,.9-.55,4.651,4.651,0,0,0,.561-1.441,12.654,12.654,0,0,0,.286-2.013q.077-1.122.077-2.266,0-1.166-.1-2.277a12.42,12.42,0,0,0-.319-1.969,4.355,4.355,0,0,0-.583-1.386A1.06,1.06,0,0,0,16.478-13.068ZM32.406-3.586q-.264.968-.473,1.925T31.548,0H22.726V-.572q.88-.858,1.793-1.76T26.246-4.2a13.689,13.689,0,0,0,1.793-2.64,5.565,5.565,0,0,0,.627-2.508,2.939,2.939,0,0,0-.583-1.881,2.069,2.069,0,0,0-1.727-.737,2.5,2.5,0,0,0-.924.165,3.52,3.52,0,0,0-.781.429,4.079,4.079,0,0,0-.671.616,7.2,7.2,0,0,0-.572.748l-.638-.528,1.408-2.068a5.2,5.2,0,0,1,1.452-.99,4.434,4.434,0,0,1,1.87-.374,4.471,4.471,0,0,1,1.54.264,3.762,3.762,0,0,1,1.276.77,3.64,3.64,0,0,1,.869,1.232,4.063,4.063,0,0,1,.319,1.65A4.392,4.392,0,0,1,31.328-8.8a5.175,5.175,0,0,1-.55,1.21,9.029,9.029,0,0,1-.957,1.276q-.583.66-1.4,1.43l-2.64,2.508H29.37q.484,0,.8-.033a1.281,1.281,0,0,0,.55-.176,1.563,1.563,0,0,0,.44-.44q.209-.3.517-.825ZM35.244,0V-.748a5.977,5.977,0,0,0,1.045-.143,1.145,1.145,0,0,0,.583-.319,1.094,1.094,0,0,0,.253-.583,6.654,6.654,0,0,0,.055-.957v-7.986a5.7,5.7,0,0,0-.033-.682.916.916,0,0,0-.132-.407.512.512,0,0,0-.3-.2,2.722,2.722,0,0,0-.528-.077l-1.122-.088v-.638q1.1-.176,2.332-.462t2.684-.682V-2.75a6.459,6.459,0,0,0,.055.935,1.213,1.213,0,0,0,.242.594,1.043,1.043,0,0,0,.572.33A5.977,5.977,0,0,0,42-.748V0Z" transform="translate(387 6039)" fill="#1f3c88"/>
      <g id="グループ_4778-6" data-name="グループ 4778" transform="translate(372 5946)">
        <path id="パス_926" data-name="パス 926" d="M15.52-19.552q-2.3,4.864-4.64,9.728T6.336,0L3.04.384,2.784-.032Q5.632-4.256,8.032-8.4t4.48-8.08H5.7a10.873,10.873,0,0,0-1.328.064,1.924,1.924,0,0,0-.832.288,2.028,2.028,0,0,0-.592.64,10.476,10.476,0,0,0-.576,1.12H1.248q.352-1.888.528-3.216t.336-2.352h13.12ZM19.264,0V-1.088a8.694,8.694,0,0,0,1.52-.208,1.665,1.665,0,0,0,.848-.464A1.591,1.591,0,0,0,22-2.608,9.679,9.679,0,0,0,22.08-4V-15.616a8.3,8.3,0,0,0-.048-.992,1.332,1.332,0,0,0-.192-.592.745.745,0,0,0-.432-.288,3.959,3.959,0,0,0-.768-.112l-1.632-.128v-.928q1.6-.256,3.392-.672t3.9-.992V-4a9.4,9.4,0,0,0,.08,1.36,1.765,1.765,0,0,0,.352.864,1.517,1.517,0,0,0,.832.48,8.694,8.694,0,0,0,1.52.208V0Z" transform="translate(12 32)" fill="#1f3c88"/>
        <path id="パス_925" data-name="パス 925" d="M6.016-7.84v-.624l1.632.624h4.816l.7-.8,1.44,1.072a.532.532,0,0,1-.2.168,1.43,1.43,0,0,1-.392.12v3.472q0,.048-.336.192a2.312,2.312,0,0,1-.9.144h-.272v-3.9H7.472v3.76q0,.08-.32.224a2.19,2.19,0,0,1-.88.144H6.016Zm.672,1.632h6.32v.448H6.688Zm0,1.7h6.24v.464H6.688ZM4.672-9.3h8.512l.9-1.1.16.128q.16.128.408.32t.52.424q.272.232.512.44-.064.256-.432.256H4.8Zm.7-2.672h7.3l.88-1.088.16.12q.16.12.416.32t.528.424q.272.224.5.432-.064.256-.432.256H5.5ZM8.944-3.68a5.04,5.04,0,0,1,1.552.224,2.221,2.221,0,0,1,.888.52,1.188,1.188,0,0,1,.344.624.776.776,0,0,1-.1.544.71.71,0,0,1-.432.312.848.848,0,0,1-.64-.112,2.371,2.371,0,0,0-.4-.744,5.269,5.269,0,0,0-.64-.7,4,4,0,0,0-.72-.528Zm3.776.768a5.608,5.608,0,0,1,1.68.624,2.845,2.845,0,0,1,.9.808,1.538,1.538,0,0,1,.288.808A.942.942,0,0,1,15.4-.04a.737.737,0,0,1-.52.28.977.977,0,0,1-.688-.256,3.365,3.365,0,0,0-.312-1A5.947,5.947,0,0,0,13.288-2a5.572,5.572,0,0,0-.712-.8Zm-5.6-8.64a3.868,3.868,0,0,1,1.288.472,1.64,1.64,0,0,1,.608.608.863.863,0,0,1,.08.6.79.79,0,0,1-.3.456.783.783,0,0,1-.528.152,1.035,1.035,0,0,1-.608-.272,3.36,3.36,0,0,0-.248-1.048,4.713,4.713,0,0,0-.456-.888ZM9.136-13.5l2.048.176a.4.4,0,0,1-.128.264.789.789,0,0,1-.4.152v1.264H9.136Zm2.256,1.9,2.1.5a.359.359,0,0,1-.176.232.8.8,0,0,1-.416.088q-.384.384-.936.872t-1.048.872H10.64q.192-.544.408-1.272T11.392-11.6ZM7.44-2.944l1.808.176a.389.389,0,0,1-.128.248.611.611,0,0,1-.336.136V-.368q0,.144.088.184a1.329,1.329,0,0,0,.424.04h2.432a1.088,1.088,0,0,0,.2-.04.224.224,0,0,0,.12-.1,2.572,2.572,0,0,0,.224-.488q.128-.344.272-.792h.176l.064,1.3a.887.887,0,0,1,.4.24.492.492,0,0,1,.1.3.57.57,0,0,1-.24.472,1.856,1.856,0,0,1-.848.264,14.322,14.322,0,0,1-1.744.08H8.976a3.478,3.478,0,0,1-.984-.1.661.661,0,0,1-.44-.368A1.859,1.859,0,0,1,7.44-.1Zm-1.312.112h.256a3.5,3.5,0,0,1,.232,1.456A2.266,2.266,0,0,1,6.288-.32a1.6,1.6,0,0,1-.64.592A1.159,1.159,0,0,1,4.9.344.663.663,0,0,1,4.4-.1.682.682,0,0,1,4.5-.72a1.22,1.22,0,0,1,.52-.384,2.23,2.23,0,0,0,.768-.664A1.543,1.543,0,0,0,6.128-2.832ZM2.368-8.5l.608-.8,1.376.5q-.08.24-.5.3V.88q0,.064-.184.168a2.5,2.5,0,0,1-.456.192,1.86,1.86,0,0,1-.576.088H2.368ZM3.616-13.5l2.208.672a.454.454,0,0,1-.2.24.712.712,0,0,1-.424.08,24.354,24.354,0,0,1-1.272,2.88,19.05,19.05,0,0,1-1.552,2.5A14.661,14.661,0,0,1,.592-5.12L.384-5.264A20.684,20.684,0,0,0,1.616-7.616q.608-1.344,1.128-2.856A30.427,30.427,0,0,0,3.616-13.5Z" transform="translate(46 31)" fill="#1f3c88"/>
      </g>
      <path id="パス_930" data-name="パス 930" d="M8.489-2.093q.091-.559.2-1.241t.215-1.372q.1-.689.175-1.254t.085-.891q.013-.156-.13-.156-.169,0-.585.039t-.949.1q-.533.065-1.092.136T5.4-6.585q-.455.071-.715.124a2.485,2.485,0,0,0-.6.214A1.045,1.045,0,0,1,3.6-6.11.762.762,0,0,1,3.159-6.3a2.372,2.372,0,0,1-.442-.442A1.848,1.848,0,0,1,2.444-7.2a2.228,2.228,0,0,1-.085-.384,3,3,0,0,1-.032-.423l.221-.078q.182.169.325.325a1.315,1.315,0,0,0,.312.253.766.766,0,0,0,.39.1q.208,0,.7-.039t1.112-.1q.624-.059,1.248-.124t1.131-.123l.728-.085A.868.868,0,0,0,8.892-8q.143-.1.26-.182a.434.434,0,0,1,.26-.085,1.046,1.046,0,0,1,.416.124,3.563,3.563,0,0,1,.526.312,2.766,2.766,0,0,1,.455.4A.6.6,0,0,1,11-7.059a.458.458,0,0,1-.1.293q-.1.123-.221.266a.839.839,0,0,0-.175.351q-.078.3-.182.747t-.215,1q-.111.553-.24,1.144t-.26,1.164ZM3.445-1a.922.922,0,0,1-.481-.163,2.19,2.19,0,0,1-.475-.4,2.117,2.117,0,0,1-.318-.449,2.053,2.053,0,0,1-.137-.461,2.4,2.4,0,0,1-.045-.4l.2-.1a6.14,6.14,0,0,0,.546.488,1.04,1.04,0,0,0,.663.214q.182,0,.637-.039t1.079-.1q.624-.058,1.3-.13L7.7-2.678q.618-.065,1.059-.1t.6-.039a1.475,1.475,0,0,1,.689.123,1.2,1.2,0,0,1,.442.338.681.681,0,0,1,.156.422.323.323,0,0,1-.137.279.761.761,0,0,1-.436.1,5.689,5.689,0,0,1-.832-.078,8.615,8.615,0,0,0-1.274-.078,12.17,12.17,0,0,0-1.235.065Q6.1-1.586,5.557-1.5t-.89.169q-.312.078-.52.15l-.364.124A1.063,1.063,0,0,1,3.445-1ZM22.152-2.379q.1-.546.208-1.222t.195-1.333q.091-.656.143-1.2t.052-.8a.161.161,0,0,0-.182-.182q-.273,0-.7.026t-.91.065q-.481.039-.91.078l-.689.065a5.044,5.044,0,0,0-.6.111,2.016,2.016,0,0,1-.468.071,1.187,1.187,0,0,1-.514-.156,3.381,3.381,0,0,1-.54-.338v-.3q.312-.013.845-.052t1.15-.091q.618-.052,1.209-.111l1.04-.1q.448-.045.63-.072a.914.914,0,0,0,.4-.143q.143-.1.26-.2a.4.4,0,0,1,.26-.1.95.95,0,0,1,.423.149,3.593,3.593,0,0,1,.533.37,2.949,2.949,0,0,1,.448.455.7.7,0,0,1,.182.4.434.434,0,0,1-.117.3q-.117.13-.254.26a.683.683,0,0,0-.188.338q-.065.273-.156.708t-.195.949q-.1.513-.214,1.053T23.27-2.327ZM17.342-.572A.515.515,0,0,1,17-.715a1,1,0,0,1-.26-.384,1.354,1.354,0,0,1-.1-.513q0-.156.013-.4t.026-.513q.013-.273,0-.533t-.019-.63q-.02-.384-.059-.832t-.084-.9q-.046-.448-.1-.845A5.349,5.349,0,0,0,16.3-6.9a1.568,1.568,0,0,0-.253-.591,3.556,3.556,0,0,0-.514-.54l.13-.195a4.89,4.89,0,0,1,.975.143,2.164,2.164,0,0,1,.884.494.355.355,0,0,1,.123.176,1.914,1.914,0,0,1,.033.266q.013.208.032.656t.032,1.027q.013.579.033,1.183t.039,1.144q.019.54.02.891.013.273.019.5t.007.553a.793.793,0,0,1-.117.449A.448.448,0,0,1,17.342-.572ZM17.433-2.4q.468-.026,1.092-.078t1.294-.1l1.313-.1q.643-.052,1.163-.078T23.14-2.8a1.655,1.655,0,0,1,.514.078,1.062,1.062,0,0,1,.4.221.444.444,0,0,1,.156.338.512.512,0,0,1-.124.357.492.492,0,0,1-.383.137q-.273,0-.754-.046t-.988-.046q-.546,0-1.3.033t-1.593.078q-.839.046-1.632.1ZM29.874.455A8.521,8.521,0,0,0,31.96-1.287a6.739,6.739,0,0,0,1.229-2.165,8.938,8.938,0,0,0,.455-2.7q.026-.442.026-.975t-.019-1.02q-.02-.487-.059-.787A.365.365,0,0,0,33.4-9.2a1.425,1.425,0,0,0-.4-.149q-.228-.052-.449-.091l-.026-.221q.2-.1.52-.26a1.356,1.356,0,0,1,.572-.156,1.978,1.978,0,0,1,.728.143,2.39,2.39,0,0,1,.618.345.538.538,0,0,1,.253.384.443.443,0,0,1-.065.26q-.065.091-.137.208a.867.867,0,0,0-.084.39q-.039.533-.058,1.144T34.827-6.1a9.6,9.6,0,0,1-.6,2.977A6.055,6.055,0,0,1,32.708-.871,8.163,8.163,0,0,1,30.056.715Zm.065-5.343a.875.875,0,0,1-.468-.188,2.953,2.953,0,0,1-.514-.455,1.782,1.782,0,0,1-.318-.449,1.019,1.019,0,0,1-.091-.312q-.026-.182-.039-.416l.195-.078a4.56,4.56,0,0,0,.449.462.8.8,0,0,0,.552.2q.182,0,.566-.033t.89-.091q.507-.059,1.053-.117t1.059-.123q.514-.065.9-.1,1-.117,1.638-.2t1.014-.156q.377-.071.566-.111t.279-.065a.618.618,0,0,1,.169-.026,1.8,1.8,0,0,1,.436.065,2.782,2.782,0,0,1,.5.182,1.533,1.533,0,0,1,.41.273.453.453,0,0,1,.162.325.441.441,0,0,1-.156.377.632.632,0,0,1-.39.117q-.26,0-.858-.039T36.42-5.883q-.93.006-2.23.123-.52.039-1.138.136t-1.176.2q-.559.1-.91.2a1.755,1.755,0,0,0-.52.2A1.081,1.081,0,0,1,29.939-4.888Zm17-5.226v-.494l1.209.494h2.639l.533-.689,1.3.936a.51.51,0,0,1-.2.156,1.213,1.213,0,0,1-.383.091v3.978h-1.1v-4.1H48.022v4.1H46.943ZM45.916-5.9v-.507L47.1-5.9h5v.364H47.021V.7q0,.065-.13.156a1.22,1.22,0,0,1-.345.156,1.538,1.538,0,0,1-.449.065h-.182Zm4.264,1.56h-.1l.429-.429.9.689A.648.648,0,0,1,51-3.9v2.834q0,.039-.117.1a1.3,1.3,0,0,1-.279.11,1.1,1.1,0,0,1-.292.046h-.13Zm-.689-3.965h2.067v.377H49.491ZM48.477-1.781H50.5V-1.4H48.477Zm.546-6.526v-.442l1.053.442h-.182v2.574h-.871Zm-1.04,3.965v-.39l.884.39H50.4v.377H48.8V-.78q0,.065-.221.162a1.178,1.178,0,0,1-.481.1h-.117ZM51.9-5.9h.4l.377-.559.871,1.04a2.456,2.456,0,0,1-.215.123.97.97,0,0,1-.292.1V-.182a1.839,1.839,0,0,1-.1.644A.818.818,0,0,1,52.507.9a2.621,2.621,0,0,1-.975.2,1.61,1.61,0,0,0-.046-.423A.815.815,0,0,0,51.337.39.887.887,0,0,0,51,.156,2.289,2.289,0,0,0,50.4,0V-.169l.221.006q.221.007.514.026t.527.02q.234,0,.234-.169Zm-7.631-.091V.7q0,.052-.117.143a1.232,1.232,0,0,1-.332.169,1.463,1.463,0,0,1-.5.078h-.195v-6.1Zm-1.118-4.953,1.612.143a.353.353,0,0,1-.117.227.6.6,0,0,1-.351.123v2.21H43.147ZM41.548-8.4h4.017v.364h-3.9Zm3.042,0h-.039l.7-.676,1.053,1.118a.436.436,0,0,1-.208.111,2.912,2.912,0,0,1-.364.058,10.079,10.079,0,0,1-1.1,1.723,12.346,12.346,0,0,1-1.554,1.651,11.013,11.013,0,0,1-1.82,1.32l-.13-.13a11.177,11.177,0,0,0,1.111-1.144,14.256,14.256,0,0,0,1-1.332,13.122,13.122,0,0,0,.806-1.385A8.87,8.87,0,0,0,44.59-8.4ZM44.1-5.889a3.563,3.563,0,0,1,1.235.591,1.642,1.642,0,0,1,.533.676.77.77,0,0,1,.013.572.505.505,0,0,1-.345.305.586.586,0,0,1-.514-.143,2.714,2.714,0,0,0-.234-.682,5.03,5.03,0,0,0-.4-.67,6.176,6.176,0,0,0-.436-.559Z" transform="translate(510 6059)" fill="#a6b1cc"/>
      <path id="パス_928" data-name="パス 928" d="M8.489-2.093q.091-.559.2-1.241t.215-1.372q.1-.689.175-1.254t.085-.891q.013-.156-.13-.156-.169,0-.585.039t-.949.1q-.533.065-1.092.136T5.4-6.585q-.455.071-.715.124a2.485,2.485,0,0,0-.6.214A1.045,1.045,0,0,1,3.6-6.11.762.762,0,0,1,3.159-6.3a2.372,2.372,0,0,1-.442-.442A1.848,1.848,0,0,1,2.444-7.2a2.228,2.228,0,0,1-.085-.384,3,3,0,0,1-.032-.423l.221-.078q.182.169.325.325a1.315,1.315,0,0,0,.312.253.766.766,0,0,0,.39.1q.208,0,.7-.039t1.112-.1q.624-.059,1.248-.124t1.131-.123l.728-.085A.868.868,0,0,0,8.892-8q.143-.1.26-.182a.434.434,0,0,1,.26-.085,1.046,1.046,0,0,1,.416.124,3.563,3.563,0,0,1,.526.312,2.766,2.766,0,0,1,.455.4A.6.6,0,0,1,11-7.059a.458.458,0,0,1-.1.293q-.1.123-.221.266a.839.839,0,0,0-.175.351q-.078.3-.182.747t-.215,1q-.111.553-.24,1.144t-.26,1.164ZM3.445-1a.922.922,0,0,1-.481-.163,2.19,2.19,0,0,1-.475-.4,2.117,2.117,0,0,1-.318-.449,2.053,2.053,0,0,1-.137-.461,2.4,2.4,0,0,1-.045-.4l.2-.1a6.14,6.14,0,0,0,.546.488,1.04,1.04,0,0,0,.663.214q.182,0,.637-.039t1.079-.1q.624-.058,1.3-.13L7.7-2.678q.618-.065,1.059-.1t.6-.039a1.475,1.475,0,0,1,.689.123,1.2,1.2,0,0,1,.442.338.681.681,0,0,1,.156.422.323.323,0,0,1-.137.279.761.761,0,0,1-.436.1,5.689,5.689,0,0,1-.832-.078,8.615,8.615,0,0,0-1.274-.078,12.17,12.17,0,0,0-1.235.065Q6.1-1.586,5.557-1.5t-.89.169q-.312.078-.52.15l-.364.124A1.063,1.063,0,0,1,3.445-1ZM22.152-2.379q.1-.546.208-1.222t.195-1.333q.091-.656.143-1.2t.052-.8a.161.161,0,0,0-.182-.182q-.273,0-.7.026t-.91.065q-.481.039-.91.078l-.689.065a5.044,5.044,0,0,0-.6.111,2.016,2.016,0,0,1-.468.071,1.187,1.187,0,0,1-.514-.156,3.381,3.381,0,0,1-.54-.338v-.3q.312-.013.845-.052t1.15-.091q.618-.052,1.209-.111l1.04-.1q.448-.045.63-.072a.914.914,0,0,0,.4-.143q.143-.1.26-.2a.4.4,0,0,1,.26-.1.95.95,0,0,1,.423.149,3.593,3.593,0,0,1,.533.37,2.949,2.949,0,0,1,.448.455.7.7,0,0,1,.182.4.434.434,0,0,1-.117.3q-.117.13-.254.26a.683.683,0,0,0-.188.338q-.065.273-.156.708t-.195.949q-.1.513-.214,1.053T23.27-2.327ZM17.342-.572A.515.515,0,0,1,17-.715a1,1,0,0,1-.26-.384,1.354,1.354,0,0,1-.1-.513q0-.156.013-.4t.026-.513q.013-.273,0-.533t-.019-.63q-.02-.384-.059-.832t-.084-.9q-.046-.448-.1-.845A5.349,5.349,0,0,0,16.3-6.9a1.568,1.568,0,0,0-.253-.591,3.556,3.556,0,0,0-.514-.54l.13-.195a4.89,4.89,0,0,1,.975.143,2.164,2.164,0,0,1,.884.494.355.355,0,0,1,.123.176,1.914,1.914,0,0,1,.033.266q.013.208.032.656t.032,1.027q.013.579.033,1.183t.039,1.144q.019.54.02.891.013.273.019.5t.007.553a.793.793,0,0,1-.117.449A.448.448,0,0,1,17.342-.572ZM17.433-2.4q.468-.026,1.092-.078t1.294-.1l1.313-.1q.643-.052,1.163-.078T23.14-2.8a1.655,1.655,0,0,1,.514.078,1.062,1.062,0,0,1,.4.221.444.444,0,0,1,.156.338.512.512,0,0,1-.124.357.492.492,0,0,1-.383.137q-.273,0-.754-.046t-.988-.046q-.546,0-1.3.033t-1.593.078q-.839.046-1.632.1ZM29.874.455A8.521,8.521,0,0,0,31.96-1.287a6.739,6.739,0,0,0,1.229-2.165,8.938,8.938,0,0,0,.455-2.7q.026-.442.026-.975t-.019-1.02q-.02-.487-.059-.787A.365.365,0,0,0,33.4-9.2a1.425,1.425,0,0,0-.4-.149q-.228-.052-.449-.091l-.026-.221q.2-.1.52-.26a1.356,1.356,0,0,1,.572-.156,1.978,1.978,0,0,1,.728.143,2.39,2.39,0,0,1,.618.345.538.538,0,0,1,.253.384.443.443,0,0,1-.065.26q-.065.091-.137.208a.867.867,0,0,0-.084.39q-.039.533-.058,1.144T34.827-6.1a9.6,9.6,0,0,1-.6,2.977A6.055,6.055,0,0,1,32.708-.871,8.163,8.163,0,0,1,30.056.715Zm.065-5.343a.875.875,0,0,1-.468-.188,2.953,2.953,0,0,1-.514-.455,1.782,1.782,0,0,1-.318-.449,1.019,1.019,0,0,1-.091-.312q-.026-.182-.039-.416l.195-.078a4.56,4.56,0,0,0,.449.462.8.8,0,0,0,.552.2q.182,0,.566-.033t.89-.091q.507-.059,1.053-.117t1.059-.123q.514-.065.9-.1,1-.117,1.638-.2t1.014-.156q.377-.071.566-.111t.279-.065a.618.618,0,0,1,.169-.026,1.8,1.8,0,0,1,.436.065,2.782,2.782,0,0,1,.5.182,1.533,1.533,0,0,1,.41.273.453.453,0,0,1,.162.325.441.441,0,0,1-.156.377.632.632,0,0,1-.39.117q-.26,0-.858-.039T36.42-5.883q-.93.006-2.23.123-.52.039-1.138.136t-1.176.2q-.559.1-.91.2a1.755,1.755,0,0,0-.52.2A1.081,1.081,0,0,1,29.939-4.888Zm17-5.226v-.494l1.209.494h2.639l.533-.689,1.3.936a.51.51,0,0,1-.2.156,1.213,1.213,0,0,1-.383.091v3.978h-1.1v-4.1H48.022v4.1H46.943ZM45.916-5.9v-.507L47.1-5.9h5v.364H47.021V.7q0,.065-.13.156a1.22,1.22,0,0,1-.345.156,1.538,1.538,0,0,1-.449.065h-.182Zm4.264,1.56h-.1l.429-.429.9.689A.648.648,0,0,1,51-3.9v2.834q0,.039-.117.1a1.3,1.3,0,0,1-.279.11,1.1,1.1,0,0,1-.292.046h-.13Zm-.689-3.965h2.067v.377H49.491ZM48.477-1.781H50.5V-1.4H48.477Zm.546-6.526v-.442l1.053.442h-.182v2.574h-.871Zm-1.04,3.965v-.39l.884.39H50.4v.377H48.8V-.78q0,.065-.221.162a1.178,1.178,0,0,1-.481.1h-.117ZM51.9-5.9h.4l.377-.559.871,1.04a2.456,2.456,0,0,1-.215.123.97.97,0,0,1-.292.1V-.182a1.839,1.839,0,0,1-.1.644A.818.818,0,0,1,52.507.9a2.621,2.621,0,0,1-.975.2,1.61,1.61,0,0,0-.046-.423A.815.815,0,0,0,51.337.39.887.887,0,0,0,51,.156,2.289,2.289,0,0,0,50.4,0V-.169l.221.006q.221.007.514.026t.527.02q.234,0,.234-.169Zm-7.631-.091V.7q0,.052-.117.143a1.232,1.232,0,0,1-.332.169,1.463,1.463,0,0,1-.5.078h-.195v-6.1Zm-1.118-4.953,1.612.143a.353.353,0,0,1-.117.227.6.6,0,0,1-.351.123v2.21H43.147ZM41.548-8.4h4.017v.364h-3.9Zm3.042,0h-.039l.7-.676,1.053,1.118a.436.436,0,0,1-.208.111,2.912,2.912,0,0,1-.364.058,10.079,10.079,0,0,1-1.1,1.723,12.346,12.346,0,0,1-1.554,1.651,11.013,11.013,0,0,1-1.82,1.32l-.13-.13a11.177,11.177,0,0,0,1.111-1.144,14.256,14.256,0,0,0,1-1.332,13.122,13.122,0,0,0,.806-1.385A8.87,8.87,0,0,0,44.59-8.4ZM44.1-5.889a3.563,3.563,0,0,1,1.235.591,1.642,1.642,0,0,1,.533.676.77.77,0,0,1,.013.572.505.505,0,0,1-.345.305.586.586,0,0,1-.514-.143,2.714,2.714,0,0,0-.234-.682,5.03,5.03,0,0,0-.4-.67,6.176,6.176,0,0,0-.436-.559Z" transform="translate(382 6059)" fill="#a6b1cc"/>
      <line id="線_34" data-name="線 34" y1="18" x2="32" transform="translate(457.5 5921.5)" fill="none" stroke="#bbb" stroke-width="1" stroke-dasharray="3"/>
      <line id="線_35" data-name="線 35" x1="32" y2="37" transform="translate(585.5 5884.5)" fill="none" stroke="#bbb" stroke-width="1" stroke-dasharray="3"/>
      <line id="線_36" data-name="線 36" x1="32" y2="25" transform="translate(713.5 5859.5)" fill="none" stroke="#bbb" stroke-width="1" stroke-dasharray="3"/>
      <line id="線_37" data-name="線 37" x1="32" y2="18" transform="translate(841 5841)" fill="none" stroke="#bbb" stroke-width="1" stroke-dasharray="3"/>
      <line id="線_38" data-name="線 38" x1="32" y2="29" transform="translate(969 5812)" fill="none" stroke="#bbb" stroke-width="1" stroke-dasharray="3"/>
      <g id="グループ_4782" data-name="グループ 4782" transform="translate(128.21 -4)">
        <path id="パス_869" data-name="パス 869" d="M38.21,0,76.42,41.023H0Z" transform="translate(959.21 5812.5) rotate(180)" fill="#1f3c88"/>
        <path id="パス_918" data-name="パス 918" d="M2.288-9.958l.013-.689-.013-.013L4-9.958h6.149l-.013.377H3.887L3.9.546Q3.887.637,3.705.78a1.773,1.773,0,0,1-.481.254,1.9,1.9,0,0,1-.663.11L2.3,1.131Zm6.877,0H9.022l.793-.9L11.4-9.594a.875.875,0,0,1-.221.175,1.306,1.306,0,0,1-.364.137V.494q-.013.065-.234.188a3.061,3.061,0,0,1-.539.228,2.023,2.023,0,0,1-.63.1L9.165,1ZM3.029-6.838l7.02-.013.013.377H3.042Zm0,3.159h7.02l.013.377-7.02-.013Zm0,3.237,7.02-.013.013.377H3.042ZM23.569-2.2a5.252,5.252,0,0,1,1.495.488,2.325,2.325,0,0,1,.813.669,1.316,1.316,0,0,1,.267.689A.8.8,0,0,1,25.98.2a.691.691,0,0,1-.468.26A.9.9,0,0,1,24.882.26a3.194,3.194,0,0,0-.325-.845,7.769,7.769,0,0,0-.52-.826,6.543,6.543,0,0,0-.572-.7ZM18.8-8.541V-9.1l1.43.559h4.121l.637-.715,1.248.936a.353.353,0,0,1-.163.143,1.376,1.376,0,0,1-.319.091v2.405q0,.039-.3.162a2.2,2.2,0,0,1-.819.123H24.4V-8.164H20.1v2.743q0,.065-.286.2a1.96,1.96,0,0,1-.793.13H18.8Zm.689,2.314H25.1v.377H19.487Zm1.326-3.913h1.053v4.147H20.813Zm1.807,0h1.04v4.147H22.62ZM19.266-4.667h4.225l.741-.9.228.176.54.416q.312.241.572.475-.052.208-.364.208H19.37Zm-.9,1.612H24.31l.715-.923.227.182.539.429q.312.247.546.468-.052.208-.351.208H18.473Zm.013-7.085h5.837l.754-.923.234.175q.234.176.552.429t.579.488q-.052.208-.364.208H18.486Zm3.211,7.085h1.443V-.416a2.2,2.2,0,0,1-.123.78.982.982,0,0,1-.514.52,3.386,3.386,0,0,1-1.183.26,3.271,3.271,0,0,0-.058-.507.675.675,0,0,0-.176-.351,1.315,1.315,0,0,0-.358-.241,2.4,2.4,0,0,0-.67-.176V-.312l.182.013q.182.013.423.026l.468.026q.227.013.319.013.169,0,.208-.052a.259.259,0,0,0,.039-.156ZM19.6-2.431l1.6.871a.322.322,0,0,1-.156.137.712.712,0,0,1-.338.02A7.2,7.2,0,0,1,19.467-.319a7.815,7.815,0,0,1-1.644.891l-.13-.143a5.98,5.98,0,0,0,.786-.878,10.151,10.151,0,0,0,.67-1.027A6.4,6.4,0,0,0,19.6-2.431ZM14-7.813h3.211l.65-.975.2.189q.2.189.475.455t.481.487q-.052.208-.351.208H14.1Zm1.6,0h1.456v.208a11.631,11.631,0,0,1-1.034,3.127,9.724,9.724,0,0,1-1.865,2.567l-.169-.143A9.369,9.369,0,0,0,14.755-3.8a17.223,17.223,0,0,0,.52-1.983Q15.483-6.812,15.6-7.813Zm.065-3.2,1.911.182a.378.378,0,0,1-.111.241.646.646,0,0,1-.358.136V.728q0,.052-.176.156a1.966,1.966,0,0,1-.435.182,1.89,1.89,0,0,1-.546.078h-.286Zm1.443,5.187a3.839,3.839,0,0,1,1.092.6,1.815,1.815,0,0,1,.526.663.984.984,0,0,1,.078.592.779.779,0,0,1-.241.423.562.562,0,0,1-.435.143.883.883,0,0,1-.514-.254,2.877,2.877,0,0,0-.1-.734,6.222,6.222,0,0,0-.24-.728,4.07,4.07,0,0,0-.312-.63Z" transform="translate(907.5 5790.934)" fill="#fff"/>
      </g>
    </g>
  </g>
</svg>
