<svg xmlns="http://www.w3.org/2000/svg" width="58.985" height="39.919" viewBox="0 0 58.985 39.919">
  <g id="グループ_4569" data-name="グループ 4569" transform="translate(-122 -163.373)">
    <path id="パス_242" data-name="パス 242" d="M127.593,182.336c0-4.6,2.112-5.229,2.112-10.95v-7.322a.691.691,0,0,0-1.382,0v7.322c0,5.418-2.112,5.981-2.112,10.968l.456,17.621c.068,2.608-1.693,2.466-1.629,0l.456-17.639c0-4.972-2.112-5.5-2.112-10.95v-7.322a.691.691,0,0,0-1.382,0v7.322c0,5.718,2.111,6.34,2.112,10.932l-.456,17.621c-.115,4.452,4.509,4.43,4.394,0Z" transform="translate(0 0)" fill="#1f3c88"/>
    <path id="パス_243" data-name="パス 243" d="M131.3,164.064v8.454a.691.691,0,1,0,1.382,0v-8.454a.691.691,0,0,0-1.382,0Z" transform="translate(-7.156 0)" fill="#1f3c88"/>
    <path id="パス_244" data-name="パス 244" d="M140.381,163.373a.691.691,0,0,0-.691.691v8.454a.691.691,0,1,0,1.382,0v-8.454A.691.691,0,0,0,140.381,163.373Z" transform="translate(-13.614 0)" fill="#1f3c88"/>
    <path id="パス_245" data-name="パス 245" d="M165.635,183.333a19.96,19.96,0,1,0,19.96-19.96A19.982,19.982,0,0,0,165.635,183.333Zm19.96-18.577a18.577,18.577,0,1,1-18.577,18.577A18.6,18.6,0,0,1,185.595,164.755Z" transform="translate(-33.581 0)" fill="#1f3c88"/>
    <path id="パス_246" data-name="パス 246" d="M253.269,304.2a12.977,12.977,0,0,1-3.316.429.691.691,0,1,0,0,1.382,14.352,14.352,0,0,0,3.67-.475.691.691,0,1,0-.354-1.336Z" transform="translate(-97.94 -108.358)" fill="#1f3c88"/>
    <path id="パス_247" data-name="パス 247" d="M190.819,202.874a.691.691,0,0,0,.691-.691,12.934,12.934,0,1,1,20.112,10.761.691.691,0,0,0,.768,1.149,14.317,14.317,0,1,0-22.262-11.91A.691.691,0,0,0,190.819,202.874Z" transform="translate(-52.431 -18.85)" fill="#1f3c88"/>
    <path id="パス_248" data-name="パス 248" d="M353.606,185.174a.691.691,0,0,0,.691.691h1.428v15.677a1.751,1.751,0,0,0,3.5,0V164.064a.691.691,0,0,0-.691-.691c-2.764,0-4.929,4.027-4.929,9.167Zm1.382-12.634c0-3.963,1.394-6.888,2.856-7.611v36.613a.368.368,0,0,1-.737,0V185.174a.691.691,0,0,0-.691-.691h-1.428Z" transform="translate(-178.242 0)" fill="#1f3c88"/>
  </g>
</svg>
